<mxfile host="app.diagrams.net" agent="Mozilla/5.0 (Windows NT 10.0; Win64; x64) AppleWebKit/537.36 (KHTML, like Gecko) Chrome/137.0.0.0 Safari/537.36" version="27.2.0">
  <diagram name="Page-1" id="GJhOprODO8Aw0IhJP1b8">
    <mxGraphModel dx="6887" dy="3640" grid="1" gridSize="10" guides="1" tooltips="1" connect="1" arrows="1" fold="1" page="1" pageScale="1" pageWidth="15000" pageHeight="10000" math="0" shadow="0">
      <root>
        <mxCell id="0" />
        <mxCell id="1" parent="0" />
        <mxCell id="amK7Ajxims58cx469wdc-3" value="" style="edgeStyle=orthogonalEdgeStyle;rounded=1;orthogonalLoop=1;jettySize=auto;html=1;fillColor=#fff2cc;strokeColor=#0066CC;curved=0;flowAnimation=0;shadow=0;fontColor=#000000;fontFamily=Lucida Console;labelBackgroundColor=#FFF2CC;fontSize=24;strokeWidth=2;" parent="1" source="amK7Ajxims58cx469wdc-1" target="amK7Ajxims58cx469wdc-2" edge="1">
          <mxGeometry relative="1" as="geometry" />
        </mxCell>
        <mxCell id="amK7Ajxims58cx469wdc-1" value="Request Dto" style="rounded=1;whiteSpace=wrap;html=1;fontFamily=Lucida Console;strokeColor=#0066CC;fillColor=#fff2cc;labelBackgroundColor=#FFF2CC;fontSize=24;strokeWidth=2;" parent="1" vertex="1">
          <mxGeometry x="100" y="980" width="180" height="40" as="geometry" />
        </mxCell>
        <mxCell id="amK7Ajxims58cx469wdc-7" value="" style="rounded=0;orthogonalLoop=1;jettySize=auto;html=1;fontColor=#000000;fontFamily=Lucida Console;strokeColor=#0066CC;fillColor=#fff2cc;labelBackgroundColor=#FFF2CC;fontSize=24;entryX=0.5;entryY=0;entryDx=0;entryDy=0;edgeStyle=orthogonalEdgeStyle;strokeWidth=2;" parent="1" source="amK7Ajxims58cx469wdc-2" target="amK7Ajxims58cx469wdc-5" edge="1">
          <mxGeometry relative="1" as="geometry">
            <mxPoint x="439.99999999999955" y="1515" as="targetPoint" />
          </mxGeometry>
        </mxCell>
        <mxCell id="amK7Ajxims58cx469wdc-2" value="Controller" style="whiteSpace=wrap;html=1;fontFamily=Lucida Console;rounded=1;strokeColor=#0066CC;fillColor=#fff2cc;labelBackgroundColor=#FFF2CC;fontSize=24;strokeWidth=2;" parent="1" vertex="1">
          <mxGeometry x="110" y="1310" width="170" height="40" as="geometry" />
        </mxCell>
        <mxCell id="amK7Ajxims58cx469wdc-11" value="&lt;font&gt;if true&lt;/font&gt;" style="edgeStyle=orthogonalEdgeStyle;rounded=0;orthogonalLoop=1;jettySize=auto;html=1;fontColor=#000000;fontFamily=Lucida Console;strokeColor=#0066CC;fillColor=#fff2cc;labelBackgroundColor=#FFF2CC;fontSize=24;strokeWidth=2;" parent="1" source="amK7Ajxims58cx469wdc-5" target="amK7Ajxims58cx469wdc-10" edge="1">
          <mxGeometry relative="1" as="geometry" />
        </mxCell>
        <mxCell id="amK7Ajxims58cx469wdc-13" value="&lt;font&gt;if false&lt;/font&gt;" style="edgeStyle=orthogonalEdgeStyle;rounded=0;orthogonalLoop=1;jettySize=auto;html=1;fontColor=#000000;fontFamily=Lucida Console;strokeColor=#0066CC;fillColor=#fff2cc;labelBackgroundColor=#FFF2CC;fontSize=24;strokeWidth=2;" parent="1" source="amK7Ajxims58cx469wdc-5" target="amK7Ajxims58cx469wdc-12" edge="1">
          <mxGeometry x="0.2381" relative="1" as="geometry">
            <Array as="points">
              <mxPoint x="490" y="1480" />
              <mxPoint x="490" y="1210" />
            </Array>
            <mxPoint as="offset" />
          </mxGeometry>
        </mxCell>
        <mxCell id="amK7Ajxims58cx469wdc-5" value="Check for DB Connection" style="whiteSpace=wrap;html=1;fontFamily=Lucida Console;rounded=1;strokeColor=#0066CC;fillColor=#fff2cc;labelBackgroundColor=#FFF2CC;fontSize=24;strokeWidth=2;" parent="1" vertex="1">
          <mxGeometry x="105" y="1475" width="360" height="40" as="geometry" />
        </mxCell>
        <mxCell id="amK7Ajxims58cx469wdc-15" value="" style="edgeStyle=orthogonalEdgeStyle;rounded=0;orthogonalLoop=1;jettySize=auto;html=1;fontColor=#000000;fontFamily=Lucida Console;strokeColor=#0066CC;fillColor=#fff2cc;labelBackgroundColor=#FFF2CC;fontSize=24;strokeWidth=2;" parent="1" source="amK7Ajxims58cx469wdc-10" target="amK7Ajxims58cx469wdc-14" edge="1">
          <mxGeometry relative="1" as="geometry" />
        </mxCell>
        <mxCell id="amK7Ajxims58cx469wdc-10" value="Send to Kafka" style="whiteSpace=wrap;html=1;fontFamily=Lucida Console;rounded=1;strokeColor=#0066CC;fillColor=#fff2cc;labelBackgroundColor=#FFF2CC;fontSize=24;strokeWidth=2;" parent="1" vertex="1">
          <mxGeometry x="710" y="1515" width="210" height="40" as="geometry" />
        </mxCell>
        <mxCell id="amK7Ajxims58cx469wdc-12" value="Inform the user" style="whiteSpace=wrap;html=1;fontFamily=Lucida Console;rounded=1;strokeColor=#0066CC;fillColor=#fff2cc;labelBackgroundColor=#FFF2CC;fontSize=24;strokeWidth=2;" parent="1" vertex="1">
          <mxGeometry x="500" y="1190" width="240" height="40" as="geometry" />
        </mxCell>
        <mxCell id="amK7Ajxims58cx469wdc-17" value="" style="edgeStyle=orthogonalEdgeStyle;rounded=0;orthogonalLoop=1;jettySize=auto;html=1;fontColor=#000000;fontFamily=Lucida Console;strokeColor=#0066CC;fillColor=#fff2cc;labelBackgroundColor=#FFF2CC;fontSize=24;strokeWidth=2;" parent="1" source="amK7Ajxims58cx469wdc-14" target="amK7Ajxims58cx469wdc-16" edge="1">
          <mxGeometry relative="1" as="geometry" />
        </mxCell>
        <mxCell id="amK7Ajxims58cx469wdc-14" value="Kafka Listener" style="whiteSpace=wrap;html=1;fontFamily=Lucida Console;rounded=1;strokeColor=#0066CC;fillColor=#fff2cc;labelBackgroundColor=#FFF2CC;fontSize=24;strokeWidth=2;" parent="1" vertex="1">
          <mxGeometry x="1030" y="1515" width="230" height="40" as="geometry" />
        </mxCell>
        <mxCell id="amK7Ajxims58cx469wdc-19" value="&lt;div style=&quot;color: rgb(0, 0, 0);&quot;&gt;&lt;div&gt;&lt;span style=&quot;color: rgb(11, 79, 121);&quot;&gt;ConfigSetType&lt;/span&gt;.&lt;span style=&quot;color: rgb(108, 54, 169);&quot;&gt;DATABASE&lt;/span&gt;&lt;/div&gt;&lt;/div&gt;" style="edgeStyle=entityRelationEdgeStyle;rounded=0;orthogonalLoop=1;jettySize=auto;html=1;fontFamily=Lucida Console;strokeColor=#0066CC;fillColor=#fff2cc;labelBackgroundColor=#FFF2CC;fontSize=24;strokeWidth=2;" parent="1" source="amK7Ajxims58cx469wdc-16" target="amK7Ajxims58cx469wdc-18" edge="1">
          <mxGeometry relative="1" as="geometry" />
        </mxCell>
        <mxCell id="amK7Ajxims58cx469wdc-16" value="&lt;div&gt;&lt;div&gt;&lt;span&gt;UtilitySetAIService&lt;br&gt;&lt;/span&gt;createUtilitySetAi&lt;/div&gt;&lt;/div&gt;" style="fontFamily=Lucida Console;rounded=1;html=1;spacing=4;strokeColor=#0066CC;fillColor=#fff2cc;labelBackgroundColor=#FFF2CC;fontSize=24;strokeWidth=2;" parent="1" vertex="1">
          <mxGeometry x="1380" y="1495" width="300" height="80" as="geometry" />
        </mxCell>
        <mxCell id="amK7Ajxims58cx469wdc-21" value="table list is null" style="edgeStyle=entityRelationEdgeStyle;rounded=0;orthogonalLoop=1;jettySize=auto;html=1;fontFamily=Lucida Console;fontSize=24;strokeColor=#0066CC;fillColor=#fff2cc;labelBackgroundColor=#FFF2CC;strokeWidth=2;" parent="1" source="amK7Ajxims58cx469wdc-18" target="amK7Ajxims58cx469wdc-20" edge="1">
          <mxGeometry relative="1" as="geometry" />
        </mxCell>
        <mxCell id="amK7Ajxims58cx469wdc-25" value="user specified table name" style="edgeStyle=entityRelationEdgeStyle;rounded=0;orthogonalLoop=1;jettySize=auto;html=1;fontFamily=Lucida Console;fontSize=24;strokeColor=#0066CC;fillColor=#fff2cc;labelBackgroundColor=#FFF2CC;strokeWidth=2;" parent="1" source="amK7Ajxims58cx469wdc-18" target="amK7Ajxims58cx469wdc-24" edge="1">
          <mxGeometry relative="1" as="geometry" />
        </mxCell>
        <mxCell id="amK7Ajxims58cx469wdc-51" value="&lt;div style=&quot;color: rgb(0, 0, 0);&quot;&gt;&lt;div&gt;&lt;span style=&quot;color:#0b4f79;&quot;&gt;ExecutorRequestDto&lt;/span&gt;&lt;/div&gt;&lt;/div&gt;" style="edgeStyle=orthogonalEdgeStyle;rounded=0;orthogonalLoop=1;jettySize=auto;html=1;fontFamily=Lucida Console;exitX=0.5;exitY=1;exitDx=0;exitDy=0;strokeColor=#0066CC;fillColor=#fff2cc;labelBackgroundColor=#FFF2CC;fontSize=24;strokeWidth=2;" parent="1" source="LzeKRFWDxI_c3MoV32VU-66" target="amK7Ajxims58cx469wdc-50" edge="1">
          <mxGeometry relative="1" as="geometry" />
        </mxCell>
        <mxCell id="LzeKRFWDxI_c3MoV32VU-67" value="" style="rounded=0;orthogonalLoop=1;jettySize=auto;html=1;exitX=0.5;exitY=1;exitDx=0;exitDy=0;strokeColor=#0066CC;fontFamily=Lucida Console;fillColor=#fff2cc;labelBackgroundColor=#FFF2CC;fontSize=24;strokeWidth=2;" parent="1" source="amK7Ajxims58cx469wdc-18" target="LzeKRFWDxI_c3MoV32VU-66" edge="1">
          <mxGeometry relative="1" as="geometry" />
        </mxCell>
        <mxCell id="LzeKRFWDxI_c3MoV32VU-69" value="" style="rounded=0;orthogonalLoop=1;jettySize=auto;html=1;exitX=0.5;exitY=1;exitDx=0;exitDy=0;strokeColor=#0066CC;fontFamily=Lucida Console;fillColor=#fff2cc;labelBackgroundColor=#FFF2CC;fontSize=24;strokeWidth=2;" parent="1" source="amK7Ajxims58cx469wdc-18" target="LzeKRFWDxI_c3MoV32VU-68" edge="1">
          <mxGeometry relative="1" as="geometry" />
        </mxCell>
        <mxCell id="LzeKRFWDxI_c3MoV32VU-73" value="" style="rounded=0;orthogonalLoop=1;jettySize=auto;html=1;exitX=0.5;exitY=1;exitDx=0;exitDy=0;entryX=0.5;entryY=0;entryDx=0;entryDy=0;strokeColor=#0066CC;fontFamily=Lucida Console;fillColor=#fff2cc;labelBackgroundColor=#FFF2CC;fontSize=24;strokeWidth=2;" parent="1" source="amK7Ajxims58cx469wdc-18" target="LzeKRFWDxI_c3MoV32VU-72" edge="1">
          <mxGeometry relative="1" as="geometry" />
        </mxCell>
        <mxCell id="amK7Ajxims58cx469wdc-18" value="&lt;div&gt;&lt;div&gt;&lt;span style=&quot;color: rgb(11, 79, 121);&quot;&gt;AutoUtilityInitialSetup&lt;/span&gt;&lt;/div&gt;&lt;div&gt;startAutoUtility()&lt;/div&gt;&lt;/div&gt;" style="whiteSpace=wrap;html=1;fontFamily=Lucida Console;rounded=1;spacing=4;strokeColor=#0066CC;fillColor=#fff2cc;labelBackgroundColor=#FFF2CC;fontSize=24;strokeWidth=2;" parent="1" vertex="1">
          <mxGeometry x="3380" y="1870" width="360" height="80" as="geometry" />
        </mxCell>
        <mxCell id="amK7Ajxims58cx469wdc-27" value="isAbap" style="edgeStyle=entityRelationEdgeStyle;rounded=0;orthogonalLoop=1;jettySize=auto;html=1;fontFamily=Lucida Console;strokeColor=#0066CC;fillColor=#fff2cc;labelBackgroundColor=#FFF2CC;fontSize=24;strokeWidth=2;" parent="1" source="amK7Ajxims58cx469wdc-20" target="amK7Ajxims58cx469wdc-26" edge="1">
          <mxGeometry relative="1" as="geometry" />
        </mxCell>
        <mxCell id="amK7Ajxims58cx469wdc-31" value="" style="edgeStyle=entityRelationEdgeStyle;rounded=0;orthogonalLoop=1;jettySize=auto;html=1;fontFamily=Lucida Console;strokeColor=#0066CC;fillColor=#fff2cc;labelBackgroundColor=#FFF2CC;fontSize=24;strokeWidth=2;" parent="1" source="amK7Ajxims58cx469wdc-20" target="amK7Ajxims58cx469wdc-30" edge="1">
          <mxGeometry relative="1" as="geometry" />
        </mxCell>
        <mxCell id="amK7Ajxims58cx469wdc-20" value="&lt;div&gt;&lt;div&gt;&lt;span style=&quot;color: rgb(15, 104, 160);&quot;&gt;DatabaseInteractionFacade&lt;/span&gt;&lt;/div&gt;&lt;div&gt;getPiiTablesFromSchema&lt;/div&gt;&lt;/div&gt;" style="whiteSpace=wrap;html=1;fontFamily=Lucida Console;rounded=1;spacing=4;align=center;horizontal=1;verticalAlign=middle;strokeColor=#0066CC;fillColor=#fff2cc;labelBackgroundColor=#FFF2CC;fontSize=24;strokeWidth=2;" parent="1" vertex="1">
          <mxGeometry x="4550" y="1430" width="390" height="80" as="geometry" />
        </mxCell>
        <mxCell id="amK7Ajxims58cx469wdc-36" value="&lt;div style=&quot;color: rgb(0, 0, 0);&quot;&gt;&lt;div&gt;&lt;span style=&quot;color: rgb(50, 109, 116);&quot;&gt;isAbap&lt;/span&gt;&lt;/div&gt;&lt;/div&gt;" style="edgeStyle=orthogonalEdgeStyle;rounded=0;orthogonalLoop=1;jettySize=auto;html=1;fontFamily=Lucida Console;strokeColor=#0066CC;fillColor=#fff2cc;labelBackgroundColor=#FFF2CC;fontSize=24;strokeWidth=2;" parent="1" source="amK7Ajxims58cx469wdc-24" target="amK7Ajxims58cx469wdc-20" edge="1">
          <mxGeometry relative="1" as="geometry" />
        </mxCell>
        <mxCell id="amK7Ajxims58cx469wdc-38" value="&lt;div style=&quot;forced-color-adjust: none; color: rgb(0, 0, 0); font-style: normal; font-variant-ligatures: normal; font-variant-caps: normal; font-weight: 400; letter-spacing: normal; orphans: 2; text-align: center; text-indent: 0px; text-transform: none; widows: 2; word-spacing: 0px; -webkit-text-stroke-width: 0px; text-decoration-thickness: initial; text-decoration-style: initial; text-decoration-color: initial;&quot;&gt;&lt;span style=&quot;forced-color-adjust: none; color: rgb(50, 109, 116);&quot;&gt;!isAbap&lt;/span&gt;&lt;/div&gt;" style="edgeStyle=orthogonalEdgeStyle;rounded=0;orthogonalLoop=1;jettySize=auto;html=1;fontFamily=Lucida Console;strokeColor=#0066CC;fillColor=#fff2cc;labelBackgroundColor=#FFF2CC;fontSize=24;strokeWidth=2;" parent="1" source="amK7Ajxims58cx469wdc-24" target="amK7Ajxims58cx469wdc-37" edge="1">
          <mxGeometry relative="1" as="geometry" />
        </mxCell>
        <mxCell id="amK7Ajxims58cx469wdc-24" value="&lt;div&gt;&lt;div&gt;&lt;span style=&quot;color: rgb(15, 104, 160);&quot;&gt;D&lt;/span&gt;atabaseInteractionFacade&lt;/div&gt;&lt;div&gt;&lt;span style=&quot;color: rgb(50, 109, 116);&quot;&gt;getPiiTablesFromTableList&lt;/span&gt;&lt;/div&gt;&lt;/div&gt;" style="whiteSpace=wrap;html=1;fontFamily=Lucida Console;rounded=1;spacing=4;strokeColor=#0066CC;fillColor=#fff2cc;labelBackgroundColor=#FFF2CC;fontSize=24;strokeWidth=2;" parent="1" vertex="1">
          <mxGeometry x="4550" y="2510" width="390" height="80" as="geometry" />
        </mxCell>
        <mxCell id="amK7Ajxims58cx469wdc-33" value="" style="edgeStyle=orthogonalEdgeStyle;rounded=0;orthogonalLoop=1;jettySize=auto;html=1;fontFamily=Lucida Console;strokeColor=#0066CC;fillColor=#fff2cc;labelBackgroundColor=#FFF2CC;fontSize=24;strokeWidth=2;" parent="1" source="amK7Ajxims58cx469wdc-26" target="amK7Ajxims58cx469wdc-32" edge="1">
          <mxGeometry relative="1" as="geometry" />
        </mxCell>
        <mxCell id="amK7Ajxims58cx469wdc-26" value="&lt;div&gt;&lt;div&gt;&lt;span style=&quot;color: rgb(108, 54, 169);&quot;&gt;QueryBuilder&lt;/span&gt;&lt;/div&gt;&lt;div&gt;&lt;span style=&quot;color: rgb(108, 54, 169);&quot;&gt;getAllTablesAndFieldsForAbap&lt;/span&gt;&lt;/div&gt;&lt;/div&gt;" style="whiteSpace=wrap;html=1;fontFamily=Lucida Console;rounded=1;spacing=4;strokeColor=#0066CC;fillColor=#fff2cc;labelBackgroundColor=#FFF2CC;fontSize=24;strokeWidth=2;" parent="1" vertex="1">
          <mxGeometry x="5345" y="1310" width="430" height="80" as="geometry" />
        </mxCell>
        <mxCell id="amK7Ajxims58cx469wdc-30" value="&lt;div&gt;&lt;div&gt;&lt;span style=&quot;color: rgb(15, 104, 160);&quot;&gt;&lt;div style=&quot;color: rgb(0, 0, 0);&quot;&gt;&lt;div&gt;&lt;span style=&quot;color: rgb(11, 79, 121);&quot;&gt;DataBaseInteractionFacade&lt;/span&gt;&lt;/div&gt;&lt;div&gt;getTasksFromMetaData&lt;/div&gt;&lt;/div&gt;&lt;/span&gt;&lt;/div&gt;&lt;/div&gt;" style="whiteSpace=wrap;html=1;fontFamily=Lucida Console;rounded=1;spacing=4;horizontal=1;strokeColor=#0066CC;fillColor=#fff2cc;labelBackgroundColor=#FFF2CC;fontSize=24;strokeWidth=2;" parent="1" vertex="1">
          <mxGeometry x="5345" y="1620" width="390" height="80" as="geometry" />
        </mxCell>
        <mxCell id="amK7Ajxims58cx469wdc-32" value="&lt;div style=&quot;color: rgb(0, 0, 0);&quot;&gt;&lt;div&gt;&lt;span style=&quot;color: rgb(50, 109, 116);&quot;&gt;&lt;div style=&quot;color: rgb(0, 0, 0);&quot;&gt;&lt;span style=&quot;color: rgb(11, 79, 121);&quot;&gt;DataBaseInteractionFacade&lt;/span&gt;&lt;/div&gt;&lt;/span&gt;&lt;/div&gt;&lt;div&gt;&lt;span style=&quot;color: rgb(50, 109, 116);&quot;&gt;buildTasksFromMap&lt;/span&gt;&lt;/div&gt;&lt;/div&gt;" style="whiteSpace=wrap;html=1;fontFamily=Lucida Console;rounded=1;spacing=4;strokeColor=#0066CC;fillColor=#fff2cc;labelBackgroundColor=#FFF2CC;fontSize=24;strokeWidth=2;" parent="1" vertex="1">
          <mxGeometry x="6235" y="1310" width="390" height="80" as="geometry" />
        </mxCell>
        <mxCell id="amK7Ajxims58cx469wdc-42" value="&lt;div style=&quot;forced-color-adjust: none; color: rgb(0, 0, 0); font-style: normal; font-variant-ligatures: normal; font-variant-caps: normal; font-weight: 400; letter-spacing: normal; orphans: 2; text-align: center; text-indent: 0px; text-transform: none; widows: 2; word-spacing: 0px; -webkit-text-stroke-width: 0px; text-decoration-thickness: initial; text-decoration-style: initial; text-decoration-color: initial;&quot;&gt;&lt;span style=&quot;forced-color-adjust: none; color: rgb(50, 109, 116);&quot;&gt;ifExist&lt;/span&gt;&lt;/div&gt;" style="edgeStyle=entityRelationEdgeStyle;rounded=0;orthogonalLoop=1;jettySize=auto;html=1;fontFamily=Lucida Console;strokeColor=#0066CC;fillColor=#fff2cc;labelBackgroundColor=#FFF2CC;fontSize=24;strokeWidth=2;" parent="1" source="amK7Ajxims58cx469wdc-37" target="amK7Ajxims58cx469wdc-41" edge="1">
          <mxGeometry relative="1" as="geometry" />
        </mxCell>
        <mxCell id="amK7Ajxims58cx469wdc-44" value="&lt;div style=&quot;forced-color-adjust: none; color: rgb(0, 0, 0); font-style: normal; font-variant-ligatures: normal; font-variant-caps: normal; font-weight: 400; letter-spacing: normal; orphans: 2; text-align: center; text-indent: 0px; text-transform: none; widows: 2; word-spacing: 0px; -webkit-text-stroke-width: 0px; text-decoration-thickness: initial; text-decoration-style: initial; text-decoration-color: initial;&quot;&gt;&lt;span style=&quot;forced-color-adjust: none; color: rgb(50, 109, 116);&quot;&gt;!ifExist&lt;/span&gt;&lt;/div&gt;" style="edgeStyle=entityRelationEdgeStyle;rounded=0;orthogonalLoop=1;jettySize=auto;html=1;fontFamily=Lucida Console;strokeColor=#0066CC;fillColor=#fff2cc;labelBackgroundColor=#FFF2CC;fontSize=24;strokeWidth=2;" parent="1" source="amK7Ajxims58cx469wdc-37" target="amK7Ajxims58cx469wdc-43" edge="1">
          <mxGeometry relative="1" as="geometry" />
        </mxCell>
        <mxCell id="amK7Ajxims58cx469wdc-37" value="&lt;div&gt;&lt;div&gt;&lt;span style=&quot;color: rgb(15, 104, 160);&quot;&gt;DataBaseInteractionDao&lt;/span&gt;&lt;/div&gt;&lt;div&gt;&lt;span style=&quot;color: rgb(50, 109, 116);&quot;&gt;checkForTableExistence&lt;/span&gt;&lt;/div&gt;&lt;/div&gt;" style="whiteSpace=wrap;html=1;fontFamily=Lucida Console;rounded=1;spacing=4;strokeColor=#0066CC;fillColor=#fff2cc;labelBackgroundColor=#FFF2CC;fontSize=24;strokeWidth=2;" parent="1" vertex="1">
          <mxGeometry x="5385" y="2514.89" width="350" height="80" as="geometry" />
        </mxCell>
        <mxCell id="amK7Ajxims58cx469wdc-41" value="&lt;div&gt;&lt;div&gt;DataBaseInteractionFacade&lt;/div&gt;&lt;div&gt;&lt;span style=&quot;color:#326d74;&quot;&gt;createDetectionTask&lt;/span&gt;&lt;/div&gt;&lt;/div&gt;" style="whiteSpace=wrap;html=1;fontFamily=Lucida Console;rounded=1;spacing=4;strokeColor=#0066CC;fillColor=#fff2cc;labelBackgroundColor=#FFF2CC;fontSize=24;strokeWidth=2;" parent="1" vertex="1">
          <mxGeometry x="6235" y="2390" width="390" height="80" as="geometry" />
        </mxCell>
        <mxCell id="amK7Ajxims58cx469wdc-43" value="&lt;div&gt;&lt;div&gt;&lt;div&gt;&lt;div&gt;&lt;span style=&quot;color:#0f68a0;&quot;&gt;TableHistoryFacade&lt;/span&gt;&lt;/div&gt;&lt;/div&gt;&lt;/div&gt;&lt;div&gt;&lt;span style=&quot;color:#326d74;&quot;&gt;handleMissingTable&lt;/span&gt;&lt;/div&gt;&lt;/div&gt;" style="whiteSpace=wrap;html=1;fontFamily=Lucida Console;rounded=1;spacing=4;strokeColor=#0066CC;fillColor=#fff2cc;labelBackgroundColor=#FFF2CC;fontSize=24;strokeWidth=2;" parent="1" vertex="1">
          <mxGeometry x="6285" y="2760" width="290" height="80" as="geometry" />
        </mxCell>
        <mxCell id="amK7Ajxims58cx469wdc-47" value="&lt;span style=&quot;color: rgb(0, 0, 0); font-style: normal; font-variant-ligatures: normal; font-variant-caps: normal; font-weight: 400; letter-spacing: normal; orphans: 2; text-align: center; text-indent: 0px; text-transform: none; widows: 2; word-spacing: 0px; -webkit-text-stroke-width: 0px; white-space: nowrap; text-decoration-thickness: initial; text-decoration-style: initial; text-decoration-color: initial; float: none; display: inline !important;&quot;&gt;List&amp;lt;P&lt;/span&gt;&lt;span style=&quot;forced-color-adjust: none; font-style: normal; font-variant-ligatures: normal; font-variant-caps: normal; font-weight: 400; letter-spacing: normal; orphans: 2; text-align: center; text-indent: 0px; text-transform: none; widows: 2; word-spacing: 0px; -webkit-text-stroke-width: 0px; white-space: nowrap; text-decoration-thickness: initial; text-decoration-style: initial; text-decoration-color: initial; color: rgb(108, 54, 169);&quot;&gt;iiTableDetectionTasks&amp;gt;&lt;/span&gt;" style="endArrow=classic;html=1;rounded=0;edgeStyle=orthogonalEdgeStyle;exitX=0;exitY=0.5;exitDx=0;exitDy=0;entryX=0.938;entryY=-0.006;entryDx=0;entryDy=0;entryPerimeter=0;fontFamily=Lucida Console;strokeColor=#0066CC;fillColor=#fff2cc;labelBackgroundColor=#FFF2CC;fontSize=24;strokeWidth=2;" parent="1" source="amK7Ajxims58cx469wdc-20" target="amK7Ajxims58cx469wdc-18" edge="1">
          <mxGeometry x="-0.1233" width="50" height="50" relative="1" as="geometry">
            <mxPoint x="3355" y="1650" as="sourcePoint" />
            <mxPoint x="2807.2" y="1731.52" as="targetPoint" />
            <mxPoint as="offset" />
          </mxGeometry>
        </mxCell>
        <mxCell id="amK7Ajxims58cx469wdc-48" value="&lt;span style=&quot;forced-color-adjust: none; color: rgb(0, 0, 0); font-style: normal; font-variant-ligatures: normal; font-variant-caps: normal; font-weight: 400; letter-spacing: normal; orphans: 2; text-align: center; text-indent: 0px; text-transform: none; widows: 2; word-spacing: 0px; -webkit-text-stroke-width: 0px; white-space: nowrap; text-decoration-thickness: initial; text-decoration-style: initial; text-decoration-color: initial; float: none; display: inline !important;&quot;&gt;List&amp;lt;P&lt;/span&gt;&lt;span style=&quot;forced-color-adjust: none; font-style: normal; font-variant-ligatures: normal; font-variant-caps: normal; font-weight: 400; letter-spacing: normal; orphans: 2; text-align: center; text-indent: 0px; text-transform: none; widows: 2; word-spacing: 0px; -webkit-text-stroke-width: 0px; white-space: nowrap; text-decoration-thickness: initial; text-decoration-style: initial; text-decoration-color: initial; color: light-dark(rgb(108, 54, 169), rgb(204, 157, 255));&quot;&gt;iiTableDetectionTasks&amp;gt;&lt;/span&gt;" style="endArrow=classic;html=1;rounded=0;edgeStyle=orthogonalEdgeStyle;entryX=0.941;entryY=1;entryDx=0;entryDy=0;entryPerimeter=0;exitX=0;exitY=0.75;exitDx=0;exitDy=0;fontFamily=Lucida Console;strokeColor=#0066CC;fillColor=#fff2cc;labelBackgroundColor=#FFF2CC;fontSize=24;strokeWidth=2;" parent="1" source="amK7Ajxims58cx469wdc-24" target="amK7Ajxims58cx469wdc-18" edge="1">
          <mxGeometry x="-0.3385" width="50" height="50" relative="1" as="geometry">
            <mxPoint x="2990" y="2020" as="sourcePoint" />
            <mxPoint x="3040" y="1970" as="targetPoint" />
            <mxPoint as="offset" />
          </mxGeometry>
        </mxCell>
        <mxCell id="1HooZBelikX92kUnRuxz-2" value="" style="edgeStyle=orthogonalEdgeStyle;rounded=0;orthogonalLoop=1;jettySize=auto;html=1;fontFamily=Lucida Console;strokeColor=#0066CC;fillColor=#fff2cc;labelBackgroundColor=#FFF2CC;fontSize=24;strokeWidth=2;" parent="1" source="amK7Ajxims58cx469wdc-50" target="1HooZBelikX92kUnRuxz-1" edge="1">
          <mxGeometry relative="1" as="geometry" />
        </mxCell>
        <mxCell id="amK7Ajxims58cx469wdc-50" value="&lt;div&gt;&lt;div&gt;&lt;div&gt;&lt;div&gt;&lt;span style=&quot;color:#0b4f79;&quot;&gt;PiiTableDetectionTaskProcessor&lt;/span&gt;&lt;/div&gt;&lt;/div&gt;&lt;/div&gt;&lt;div&gt;&lt;span style=&quot;color: rgb(50, 109, 116);&quot;&gt;processTablesConcurrently&lt;/span&gt;&lt;/div&gt;&lt;/div&gt;" style="whiteSpace=wrap;html=1;fontFamily=Lucida Console;rounded=1;spacing=4;strokeColor=#0066CC;fillColor=#fff2cc;labelBackgroundColor=#FFF2CC;fontSize=24;strokeWidth=2;" parent="1" vertex="1">
          <mxGeometry x="2670" y="2774.89" width="460" height="80" as="geometry" />
        </mxCell>
        <mxCell id="1HooZBelikX92kUnRuxz-4" value="" style="edgeStyle=orthogonalEdgeStyle;rounded=0;orthogonalLoop=1;jettySize=auto;html=1;exitX=0.5;exitY=1;exitDx=0;exitDy=0;fontFamily=Lucida Console;strokeColor=#0066CC;fillColor=#fff2cc;labelBackgroundColor=#FFF2CC;fontSize=24;strokeWidth=2;" parent="1" source="1HooZBelikX92kUnRuxz-1" target="1HooZBelikX92kUnRuxz-3" edge="1">
          <mxGeometry relative="1" as="geometry">
            <Array as="points">
              <mxPoint x="3220" y="3130" />
              <mxPoint x="3580" y="3130" />
            </Array>
          </mxGeometry>
        </mxCell>
        <mxCell id="1HooZBelikX92kUnRuxz-6" value="" style="edgeStyle=orthogonalEdgeStyle;rounded=0;orthogonalLoop=1;jettySize=auto;html=1;fontFamily=Lucida Console;strokeColor=#0066CC;fillColor=#fff2cc;labelBackgroundColor=#FFF2CC;fontSize=24;strokeWidth=2;" parent="1" source="1HooZBelikX92kUnRuxz-1" target="1HooZBelikX92kUnRuxz-5" edge="1">
          <mxGeometry relative="1" as="geometry">
            <Array as="points">
              <mxPoint x="3220" y="3130" />
              <mxPoint x="3345" y="3130" />
            </Array>
          </mxGeometry>
        </mxCell>
        <mxCell id="1HooZBelikX92kUnRuxz-7" value="" style="edgeStyle=orthogonalEdgeStyle;rounded=0;orthogonalLoop=1;jettySize=auto;html=1;fontFamily=Lucida Console;strokeColor=#0066CC;fillColor=#fff2cc;labelBackgroundColor=#FFF2CC;fontSize=24;strokeWidth=2;" parent="1" source="1HooZBelikX92kUnRuxz-1" target="1HooZBelikX92kUnRuxz-5" edge="1">
          <mxGeometry relative="1" as="geometry">
            <Array as="points">
              <mxPoint x="3220" y="3130" />
              <mxPoint x="3345" y="3130" />
            </Array>
          </mxGeometry>
        </mxCell>
        <mxCell id="1HooZBelikX92kUnRuxz-9" value="" style="edgeStyle=orthogonalEdgeStyle;rounded=0;orthogonalLoop=1;jettySize=auto;html=1;fontFamily=Lucida Console;strokeColor=#0066CC;fillColor=#fff2cc;labelBackgroundColor=#FFF2CC;fontSize=24;strokeWidth=2;" parent="1" source="1HooZBelikX92kUnRuxz-1" target="1HooZBelikX92kUnRuxz-8" edge="1">
          <mxGeometry relative="1" as="geometry">
            <Array as="points">
              <mxPoint x="3220" y="3130" />
              <mxPoint x="3120" y="3130" />
            </Array>
          </mxGeometry>
        </mxCell>
        <mxCell id="1HooZBelikX92kUnRuxz-11" value="" style="edgeStyle=orthogonalEdgeStyle;rounded=0;orthogonalLoop=1;jettySize=auto;html=1;fontFamily=Lucida Console;strokeColor=#0066CC;fillColor=#fff2cc;labelBackgroundColor=#FFF2CC;fontSize=24;strokeWidth=2;" parent="1" source="1HooZBelikX92kUnRuxz-1" target="1HooZBelikX92kUnRuxz-10" edge="1">
          <mxGeometry relative="1" as="geometry">
            <Array as="points">
              <mxPoint x="3220" y="3130" />
              <mxPoint x="2770" y="3130" />
            </Array>
          </mxGeometry>
        </mxCell>
        <mxCell id="1HooZBelikX92kUnRuxz-1" value="For Each PiiTableDetectionTask" style="whiteSpace=wrap;html=1;fontFamily=Lucida Console;rounded=1;spacing=4;strokeColor=#0066CC;fillColor=#fff2cc;labelBackgroundColor=#FFF2CC;fontSize=24;strokeWidth=2;" parent="1" vertex="1">
          <mxGeometry x="2990" y="2956.8900000000003" width="460" height="50" as="geometry" />
        </mxCell>
        <mxCell id="1HooZBelikX92kUnRuxz-16" value="" style="edgeStyle=orthogonalEdgeStyle;rounded=0;orthogonalLoop=1;jettySize=auto;html=1;fontFamily=Lucida Console;strokeColor=#0066CC;fillColor=#fff2cc;labelBackgroundColor=#FFF2CC;fontSize=24;strokeWidth=2;" parent="1" source="1HooZBelikX92kUnRuxz-3" target="1HooZBelikX92kUnRuxz-15" edge="1">
          <mxGeometry relative="1" as="geometry" />
        </mxCell>
        <mxCell id="1HooZBelikX92kUnRuxz-3" value="&lt;div&gt;&lt;div&gt;&lt;span style=&quot;color:#0f68a0;&quot;&gt;ExecutorService&lt;br&gt;&lt;/span&gt;&lt;div&gt;&lt;div&gt;&lt;span style=&quot;color:#326d74;&quot;&gt;submit&lt;/span&gt;&lt;/div&gt;&lt;/div&gt;&lt;span style=&quot;color:#0f68a0;&quot;&gt;&lt;/span&gt;&lt;/div&gt;&lt;/div&gt;" style="whiteSpace=wrap;html=1;fontFamily=Lucida Console;rounded=1;spacing=4;strokeColor=#0066CC;fillColor=#fff2cc;labelBackgroundColor=#FFF2CC;fontSize=24;strokeWidth=2;" parent="1" vertex="1">
          <mxGeometry x="3480" y="3495" width="240" height="80" as="geometry" />
        </mxCell>
        <mxCell id="1HooZBelikX92kUnRuxz-5" value="&lt;div&gt;&lt;div&gt;&lt;span style=&quot;color:#0f68a0;&quot;&gt;CommonService&lt;/span&gt;&lt;/div&gt;&lt;div&gt;&lt;span style=&quot;color:#326d74;&quot;&gt;createJobContext&lt;/span&gt;&lt;/div&gt;&lt;/div&gt;" style="whiteSpace=wrap;html=1;fontFamily=Lucida Console;rounded=1;spacing=4;strokeColor=#0066CC;fillColor=#fff2cc;labelBackgroundColor=#FFF2CC;fontSize=24;strokeWidth=2;" parent="1" vertex="1">
          <mxGeometry x="3235" y="3495" width="260" height="80" as="geometry" />
        </mxCell>
        <mxCell id="1HooZBelikX92kUnRuxz-8" value="&lt;div&gt;&lt;div&gt;&lt;span style=&quot;color:#0f68a0;&quot;&gt;CommonService&lt;/span&gt;&lt;/div&gt;&lt;div&gt;&lt;span style=&quot;color:#326d74;&quot;&gt;createDatabaseContext&lt;/span&gt;&lt;/div&gt;&lt;/div&gt;" style="whiteSpace=wrap;html=1;fontFamily=Lucida Console;rounded=1;spacing=4;strokeColor=#0066CC;fillColor=#fff2cc;labelBackgroundColor=#FFF2CC;fontSize=24;strokeWidth=2;" parent="1" vertex="1">
          <mxGeometry x="2945" y="3500" width="330" height="80" as="geometry" />
        </mxCell>
        <mxCell id="1HooZBelikX92kUnRuxz-10" value="&lt;div&gt;&lt;div&gt;&lt;span style=&quot;color:#0f68a0;&quot;&gt;tableHistoryFacade&lt;/span&gt;&lt;/div&gt;&lt;div&gt;&lt;span style=&quot;color:#326d74;&quot;&gt;createAndSaveAiUtilityTableHistoryEntity&lt;/span&gt;&lt;/div&gt;&lt;/div&gt;" style="whiteSpace=wrap;html=1;fontFamily=Lucida Console;rounded=1;spacing=4;strokeColor=#0066CC;fillColor=#fff2cc;labelBackgroundColor=#FFF2CC;fontSize=24;strokeWidth=2;" parent="1" vertex="1">
          <mxGeometry x="2475" y="3500" width="610" height="80" as="geometry" />
        </mxCell>
        <mxCell id="1HooZBelikX92kUnRuxz-18" value="" style="edgeStyle=orthogonalEdgeStyle;rounded=0;orthogonalLoop=1;jettySize=auto;html=1;fontFamily=Lucida Console;strokeColor=#0066CC;fillColor=#fff2cc;labelBackgroundColor=#FFF2CC;fontSize=24;strokeWidth=2;" parent="1" source="1HooZBelikX92kUnRuxz-15" target="1HooZBelikX92kUnRuxz-17" edge="1">
          <mxGeometry relative="1" as="geometry" />
        </mxCell>
        <mxCell id="1HooZBelikX92kUnRuxz-15" value="Thread Picks PiiDetectionTask" style="whiteSpace=wrap;html=1;fontFamily=Lucida Console;rounded=1;spacing=4;strokeColor=#0066CC;fillColor=#fff2cc;labelBackgroundColor=#FFF2CC;fontSize=24;strokeWidth=2;" parent="1" vertex="1">
          <mxGeometry x="3675" y="3510.5" width="450" height="50" as="geometry" />
        </mxCell>
        <mxCell id="LzeKRFWDxI_c3MoV32VU-2" value="" style="edgeStyle=entityRelationEdgeStyle;rounded=0;orthogonalLoop=1;jettySize=auto;html=1;exitX=1;exitY=0.5;exitDx=0;exitDy=0;strokeColor=#0066CC;fontFamily=Lucida Console;fillColor=#fff2cc;labelBackgroundColor=#FFF2CC;fontSize=24;strokeWidth=2;" parent="1" source="LzeKRFWDxI_c3MoV32VU-58" target="LzeKRFWDxI_c3MoV32VU-1" edge="1">
          <mxGeometry relative="1" as="geometry" />
        </mxCell>
        <mxCell id="LzeKRFWDxI_c3MoV32VU-17" value="" style="edgeStyle=entityRelationEdgeStyle;rounded=0;orthogonalLoop=1;jettySize=auto;html=1;exitX=1;exitY=0.5;exitDx=0;exitDy=0;strokeColor=#0066CC;fontFamily=Lucida Console;fillColor=#fff2cc;labelBackgroundColor=#FFF2CC;fontSize=24;strokeWidth=2;" parent="1" source="LzeKRFWDxI_c3MoV32VU-58" target="LzeKRFWDxI_c3MoV32VU-16" edge="1">
          <mxGeometry relative="1" as="geometry" />
        </mxCell>
        <mxCell id="LzeKRFWDxI_c3MoV32VU-29" value="&lt;div style=&quot;forced-color-adjust: none; font-style: normal; font-variant-ligatures: normal; font-variant-caps: normal; font-weight: 400; letter-spacing: normal; orphans: 2; text-align: center; text-indent: 0px; text-transform: none; widows: 2; word-spacing: 0px; -webkit-text-stroke-width: 0px; text-decoration-thickness: initial; text-decoration-style: initial; text-decoration-color: initial; color: rgb(0, 0, 0);&quot;&gt;&lt;span style=&quot;color: rgb(57, 0, 160); forced-color-adjust: none;&quot;&gt;List&lt;/span&gt;&lt;span style=&quot;color: rgb(63, 145, 1); forced-color-adjust: none;&quot;&gt;&amp;lt;&lt;/span&gt;&lt;span style=&quot;forced-color-adjust: none; color: rgb(63, 145, 1);&quot;&gt;&lt;font color=&quot;#3900a0&quot;&gt;JsonObject&amp;gt;&lt;/font&gt;&lt;/span&gt;&lt;/div&gt;" style="edgeStyle=entityRelationEdgeStyle;rounded=0;orthogonalLoop=1;jettySize=auto;html=1;exitX=1;exitY=0.5;exitDx=0;exitDy=0;strokeColor=#0066CC;fontFamily=Lucida Console;fillColor=#fff2cc;labelBackgroundColor=#FFF2CC;fontSize=24;strokeWidth=2;" parent="1" source="LzeKRFWDxI_c3MoV32VU-58" target="LzeKRFWDxI_c3MoV32VU-28" edge="1">
          <mxGeometry relative="1" as="geometry" />
        </mxCell>
        <mxCell id="LzeKRFWDxI_c3MoV32VU-39" value="&lt;div style=&quot;forced-color-adjust: none; color: rgb(0, 0, 0); font-style: normal; font-variant-ligatures: normal; font-variant-caps: normal; font-weight: 400; letter-spacing: normal; orphans: 2; text-align: center; text-indent: 0px; text-transform: none; widows: 2; word-spacing: 0px; -webkit-text-stroke-width: 0px; text-decoration-thickness: initial; text-decoration-style: initial; text-decoration-color: initial;&quot;&gt;&lt;span style=&quot;forced-color-adjust: none; color: rgb(63, 145, 1);&quot;&gt;&lt;font color=&quot;#3900a0&quot; style=&quot;forced-color-adjust: none;&quot;&gt;if columnNames.isEmpty()&lt;/font&gt;&lt;/span&gt;&lt;/div&gt;" style="edgeStyle=entityRelationEdgeStyle;rounded=0;orthogonalLoop=1;jettySize=auto;html=1;exitX=1;exitY=0.5;exitDx=0;exitDy=0;strokeColor=#0066CC;fontFamily=Lucida Console;fillColor=#fff2cc;labelBackgroundColor=#FFF2CC;fontSize=24;strokeWidth=2;" parent="1" source="LzeKRFWDxI_c3MoV32VU-58" target="LzeKRFWDxI_c3MoV32VU-38" edge="1">
          <mxGeometry relative="1" as="geometry" />
        </mxCell>
        <mxCell id="LzeKRFWDxI_c3MoV32VU-41" value="&lt;div style=&quot;color: rgb(0, 0, 0);&quot;&gt;&lt;div&gt;&lt;span style=&quot;color: rgb(108, 54, 169);&quot;&gt;utilitySetId&lt;/span&gt;&lt;br&gt;&lt;span style=&quot;color: rgb(108, 54, 169);&quot;&gt;tableName&lt;/span&gt;&lt;br&gt;&lt;span style=&quot;color: rgb(108, 54, 169);&quot;&gt;columnNames&lt;/span&gt;&lt;br&gt;&lt;span style=&quot;color: rgb(57, 0, 160);&quot;&gt;List&lt;/span&gt;&lt;span style=&quot;color: rgb(63, 145, 1);&quot;&gt;&amp;lt;&lt;/span&gt;&lt;span style=&quot;color: rgb(11, 79, 121);&quot;&gt;FieldsUtilityParamAndPrivacyDto&lt;/span&gt;&lt;span style=&quot;color: rgb(63, 145, 1);&quot;&gt;&amp;gt;&lt;/span&gt;&lt;br&gt;&lt;span style=&quot;color: rgb(57, 0, 160);&quot;&gt;List&lt;/span&gt;&lt;span style=&quot;color: rgb(63, 145, 1);&quot;&gt;&amp;lt;&lt;/span&gt;&lt;span style=&quot;color: rgb(11, 79, 121);&quot;&gt;PsRunConditionsDto&lt;/span&gt;&lt;span style=&quot;color: rgb(63, 145, 1);&quot;&gt;&amp;gt; &lt;/span&gt;&lt;/div&gt;&lt;/div&gt;" style="edgeStyle=entityRelationEdgeStyle;rounded=0;orthogonalLoop=1;jettySize=auto;html=1;exitX=1;exitY=0.5;exitDx=0;exitDy=0;strokeColor=#0066CC;fontFamily=Lucida Console;fillColor=#fff2cc;labelBackgroundColor=#FFF2CC;fontSize=24;strokeWidth=2;" parent="1" source="LzeKRFWDxI_c3MoV32VU-58" target="LzeKRFWDxI_c3MoV32VU-40" edge="1">
          <mxGeometry relative="1" as="geometry" />
        </mxCell>
        <mxCell id="LzeKRFWDxI_c3MoV32VU-55" value="&lt;div style=&quot;color: rgb(0, 0, 0);&quot;&gt;&lt;div&gt;&lt;span style=&quot;color: rgb(108, 54, 169);&quot;&gt;&lt;div style=&quot;color: rgb(0, 0, 0);&quot;&gt;&lt;span style=&quot;color: rgb(15, 104, 160);&quot;&gt;tableName&lt;/span&gt;&lt;/div&gt;&lt;/span&gt;&lt;/div&gt;&lt;div&gt;&lt;span style=&quot;color: rgb(108, 54, 169);&quot;&gt;aiUtilityTableHistory&lt;/span&gt;&lt;/div&gt;&lt;/div&gt;" style="edgeStyle=entityRelationEdgeStyle;rounded=0;orthogonalLoop=1;jettySize=auto;html=1;exitX=1;exitY=0.5;exitDx=0;exitDy=0;strokeColor=#0066CC;fontFamily=Lucida Console;fillColor=#fff2cc;labelBackgroundColor=#FFF2CC;fontSize=24;strokeWidth=2;" parent="1" source="LzeKRFWDxI_c3MoV32VU-58" target="LzeKRFWDxI_c3MoV32VU-54" edge="1">
          <mxGeometry relative="1" as="geometry" />
        </mxCell>
        <mxCell id="LzeKRFWDxI_c3MoV32VU-57" value="&lt;div style=&quot;color: rgb(0, 0, 0);&quot;&gt;&lt;div&gt;&lt;span style=&quot;color:#0b4f79;&quot;&gt;AiUtilityJobHistoryEntity&lt;/span&gt;&lt;/div&gt;&lt;/div&gt;" style="edgeStyle=entityRelationEdgeStyle;rounded=0;orthogonalLoop=1;jettySize=auto;html=1;exitX=1;exitY=0.5;exitDx=0;exitDy=0;entryX=0;entryY=0.5;entryDx=0;entryDy=0;strokeColor=#0066CC;fontFamily=Lucida Console;fillColor=#fff2cc;labelBackgroundColor=#FFF2CC;fontSize=24;strokeWidth=2;" parent="1" source="LzeKRFWDxI_c3MoV32VU-58" target="LzeKRFWDxI_c3MoV32VU-56" edge="1">
          <mxGeometry relative="1" as="geometry">
            <mxPoint x="6865" y="4260" as="sourcePoint" />
            <mxPoint x="8095" y="6060" as="targetPoint" />
          </mxGeometry>
        </mxCell>
        <mxCell id="LzeKRFWDxI_c3MoV32VU-59" value="" style="edgeStyle=entityRelationEdgeStyle;rounded=0;orthogonalLoop=1;jettySize=auto;html=1;strokeColor=#0066CC;fontFamily=Lucida Console;fillColor=#fff2cc;labelBackgroundColor=#FFF2CC;fontSize=24;strokeWidth=2;" parent="1" source="1HooZBelikX92kUnRuxz-17" target="LzeKRFWDxI_c3MoV32VU-58" edge="1">
          <mxGeometry relative="1" as="geometry" />
        </mxCell>
        <mxCell id="LzeKRFWDxI_c3MoV32VU-61" value="" style="edgeStyle=entityRelationEdgeStyle;rounded=0;orthogonalLoop=1;jettySize=auto;html=1;strokeColor=#0066CC;fontFamily=Lucida Console;fillColor=#fff2cc;labelBackgroundColor=#FFF2CC;fontSize=24;strokeWidth=2;" parent="1" source="1HooZBelikX92kUnRuxz-17" target="LzeKRFWDxI_c3MoV32VU-60" edge="1">
          <mxGeometry relative="1" as="geometry" />
        </mxCell>
        <mxCell id="1HooZBelikX92kUnRuxz-17" value="PiiTableDetectionTask&lt;div&gt;call()&lt;/div&gt;" style="whiteSpace=wrap;html=1;fontFamily=Lucida Console;rounded=1;spacing=4;strokeColor=#0066CC;fillColor=#fff2cc;labelBackgroundColor=#FFF2CC;fontSize=24;strokeWidth=2;" parent="1" vertex="1">
          <mxGeometry x="4055" y="3495" width="330" height="80" as="geometry" />
        </mxCell>
        <mxCell id="1HooZBelikX92kUnRuxz-22" value="" style="edgeStyle=orthogonalEdgeStyle;rounded=0;orthogonalLoop=1;jettySize=auto;html=1;fontFamily=Lucida Console;strokeColor=#0066CC;fillColor=#fff2cc;labelBackgroundColor=#FFF2CC;fontSize=24;strokeWidth=2;" parent="1" source="1HooZBelikX92kUnRuxz-20" target="1HooZBelikX92kUnRuxz-21" edge="1">
          <mxGeometry relative="1" as="geometry" />
        </mxCell>
        <mxCell id="1HooZBelikX92kUnRuxz-20" value="&lt;div&gt;&lt;span style=&quot;color: rgb(155, 35, 147); font-weight: bold;&quot;&gt;private &lt;/span&gt;&lt;span style=&quot;color: rgb(11, 79, 121);&quot;&gt;String &lt;/span&gt;&lt;span style=&quot;color: rgb(15, 104, 160);&quot;&gt;tableName&lt;/span&gt;;&lt;br&gt;&lt;span style=&quot;color: rgb(155, 35, 147); font-weight: bold;&quot;&gt;private &lt;/span&gt;&lt;span style=&quot;color: rgb(57, 0, 160);&quot;&gt;List&lt;/span&gt;&amp;lt;&lt;span style=&quot;color: rgb(11, 79, 121);&quot;&gt;FieldMetaData&lt;/span&gt;&amp;gt; &lt;span style=&quot;color: rgb(15, 104, 160);&quot;&gt;fieldMetadata&lt;/span&gt;;&lt;/div&gt;" style="rounded=1;whiteSpace=wrap;html=1;fontFamily=Lucida Console;strokeColor=#0066CC;fillColor=#fff2cc;labelBackgroundColor=#FFF2CC;fontSize=24;strokeWidth=2;" parent="1" vertex="1">
          <mxGeometry x="2190" y="1395" width="630" height="70" as="geometry" />
        </mxCell>
        <mxCell id="1HooZBelikX92kUnRuxz-21" value="&lt;div&gt;&lt;div&gt;&lt;span style=&quot;color:#9b2393;font-weight:bold;&quot;&gt;private &lt;/span&gt;&lt;span style=&quot;color:#0b4f79;&quot;&gt;String &lt;/span&gt;&lt;span style=&quot;color:#0f68a0;&quot;&gt;fieldName&lt;/span&gt;;&lt;br&gt;&lt;span style=&quot;color:#9b2393;font-weight:bold;&quot;&gt;private &lt;/span&gt;&lt;span style=&quot;color:#0b4f79;&quot;&gt;String &lt;/span&gt;&lt;span style=&quot;color:#0f68a0;&quot;&gt;dataType&lt;/span&gt;;&lt;br&gt;&lt;span style=&quot;color:#9b2393;font-weight:bold;&quot;&gt;private &lt;/span&gt;&lt;span style=&quot;color:#0b4f79;&quot;&gt;Integer &lt;/span&gt;&lt;span style=&quot;color:#0f68a0;&quot;&gt;maxLength&lt;/span&gt;;&lt;/div&gt;&lt;/div&gt;" style="whiteSpace=wrap;html=1;rounded=1;align=left;spacing=10;fontFamily=Lucida Console;strokeColor=#0066CC;fillColor=#fff2cc;labelBackgroundColor=#FFF2CC;fontSize=24;strokeWidth=2;" parent="1" vertex="1">
          <mxGeometry x="2930" y="1395" width="420" height="120" as="geometry" />
        </mxCell>
        <mxCell id="1HooZBelikX92kUnRuxz-23" value="&lt;div style=&quot;color: rgb(0, 0, 0);&quot;&gt;&lt;div&gt;&lt;span style=&quot;color:#0b4f79;&quot;&gt;PiiTableDetectionTask&lt;/span&gt;&lt;/div&gt;&lt;/div&gt;" style="text;whiteSpace=wrap;html=1;fontFamily=Lucida Console;strokeColor=#0066CC;fillColor=#fff2cc;labelBackgroundColor=#FFF2CC;fontSize=24;strokeWidth=2;" parent="1" vertex="1">
          <mxGeometry x="2370" y="1350" width="330" height="40" as="geometry" />
        </mxCell>
        <mxCell id="1HooZBelikX92kUnRuxz-25" value="&lt;div style=&quot;color: rgb(0, 0, 0);&quot;&gt;&lt;div&gt;&lt;font color=&quot;#0b4f79&quot;&gt;FieldMetaData&lt;/font&gt;&lt;/div&gt;&lt;/div&gt;" style="text;whiteSpace=wrap;html=1;fontFamily=Lucida Console;strokeColor=#0066CC;fillColor=#fff2cc;labelBackgroundColor=#FFF2CC;fontSize=24;strokeWidth=2;" parent="1" vertex="1">
          <mxGeometry x="3035" y="1350" width="210" height="40" as="geometry" />
        </mxCell>
        <mxCell id="LzeKRFWDxI_c3MoV32VU-10" value="" style="edgeStyle=orthogonalEdgeStyle;rounded=0;orthogonalLoop=1;jettySize=auto;html=1;strokeColor=#0066CC;fontFamily=Lucida Console;fillColor=#fff2cc;labelBackgroundColor=#FFF2CC;fontSize=24;strokeWidth=2;" parent="1" source="LzeKRFWDxI_c3MoV32VU-1" target="LzeKRFWDxI_c3MoV32VU-9" edge="1">
          <mxGeometry relative="1" as="geometry" />
        </mxCell>
        <mxCell id="LzeKRFWDxI_c3MoV32VU-1" value="&lt;div&gt;&lt;div&gt;&lt;span style=&quot;color:#0f68a0;&quot;&gt;TableProfilingFacade&lt;/span&gt;&lt;/div&gt;&lt;div&gt;&lt;span style=&quot;color:#326d74;&quot;&gt;fetchTableData()&lt;/span&gt;&lt;/div&gt;&lt;/div&gt;" style="whiteSpace=wrap;html=1;fontFamily=Lucida Console;rounded=1;spacing=4;strokeColor=#0066CC;fillColor=#fff2cc;labelBackgroundColor=#FFF2CC;fontSize=24;strokeWidth=2;" parent="1" vertex="1">
          <mxGeometry x="8110" y="3864.8900000000003" width="320" height="80" as="geometry" />
        </mxCell>
        <mxCell id="LzeKRFWDxI_c3MoV32VU-14" value="" style="edgeStyle=orthogonalEdgeStyle;rounded=0;orthogonalLoop=1;jettySize=auto;html=1;strokeColor=#0066CC;fontFamily=Lucida Console;fillColor=#fff2cc;labelBackgroundColor=#FFF2CC;fontSize=24;strokeWidth=2;" parent="1" source="LzeKRFWDxI_c3MoV32VU-5" target="LzeKRFWDxI_c3MoV32VU-13" edge="1">
          <mxGeometry relative="1" as="geometry" />
        </mxCell>
        <mxCell id="LzeKRFWDxI_c3MoV32VU-5" value="DB" style="shape=cylinder3;whiteSpace=wrap;html=1;boundedLbl=1;backgroundOutline=1;size=15;strokeColor=#0066CC;fontFamily=Lucida Console;fillColor=#fff2cc;labelBackgroundColor=#FFF2CC;fontSize=24;strokeWidth=2;" parent="1" vertex="1">
          <mxGeometry x="8835" y="3884.8900000000003" width="50" height="40" as="geometry" />
        </mxCell>
        <mxCell id="LzeKRFWDxI_c3MoV32VU-6" value="" style="endArrow=classic;html=1;rounded=0;exitX=1;exitY=0.5;exitDx=0;exitDy=0;entryX=0;entryY=0.5;entryDx=0;entryDy=0;entryPerimeter=0;strokeColor=#0066CC;fontFamily=Lucida Console;fillColor=#fff2cc;labelBackgroundColor=#FFF2CC;fontSize=24;strokeWidth=2;" parent="1" source="LzeKRFWDxI_c3MoV32VU-9" target="LzeKRFWDxI_c3MoV32VU-5" edge="1">
          <mxGeometry width="50" height="50" relative="1" as="geometry">
            <mxPoint x="8400" y="3959.8900000000003" as="sourcePoint" />
            <mxPoint x="8450" y="3909.8900000000003" as="targetPoint" />
          </mxGeometry>
        </mxCell>
        <mxCell id="LzeKRFWDxI_c3MoV32VU-9" value="&lt;div&gt;&lt;div&gt;&lt;span style=&quot;color:#0f68a0;&quot;&gt;DataBaseInteractionDao&lt;/span&gt;&lt;/div&gt;&lt;div&gt;&lt;span style=&quot;color:#326d74;&quot;&gt;executeQueryForTableData()&lt;/span&gt;&lt;/div&gt;&lt;/div&gt;" style="whiteSpace=wrap;html=1;fontFamily=Lucida Console;rounded=1;spacing=4;strokeColor=#0066CC;fillColor=#fff2cc;labelBackgroundColor=#FFF2CC;fontSize=24;strokeWidth=2;" parent="1" vertex="1">
          <mxGeometry x="8365" y="3864.8900000000003" width="400" height="80" as="geometry" />
        </mxCell>
        <mxCell id="LzeKRFWDxI_c3MoV32VU-13" value="&lt;div&gt;&lt;div&gt;&lt;div&gt;&lt;div&gt;&lt;div&gt;&lt;div&gt;&lt;span style=&quot;color:#0b4f79;&quot;&gt;TableProfilingFacade&lt;/span&gt;&lt;/div&gt;&lt;/div&gt;&lt;/div&gt;&lt;div&gt;&lt;span style=&quot;color:#326d74;&quot;&gt;batchColumnsByRows()&lt;/span&gt;&lt;/div&gt;&lt;/div&gt;&lt;/div&gt;&lt;/div&gt;" style="whiteSpace=wrap;html=1;rounded=1;strokeColor=#0066CC;fontFamily=Lucida Console;fillColor=#fff2cc;labelBackgroundColor=#FFF2CC;fontSize=24;strokeWidth=2;" parent="1" vertex="1">
          <mxGeometry x="8965" y="3869.8900000000003" width="310" height="70" as="geometry" />
        </mxCell>
        <mxCell id="LzeKRFWDxI_c3MoV32VU-15" value="&lt;div style=&quot;color: rgb(0, 0, 0);&quot;&gt;&lt;div&gt;&lt;span style=&quot;color:#3900a0;&quot;&gt;List&lt;/span&gt;&lt;span style=&quot;color:#3f9101;&quot;&gt;&amp;lt;&lt;/span&gt;&lt;span style=&quot;color:#3900a0;&quot;&gt;List&lt;/span&gt;&lt;span style=&quot;color:#0e4a8e;&quot;&gt;&amp;lt;&lt;/span&gt;&lt;span style=&quot;color:#3900a0;&quot;&gt;Map&lt;/span&gt;&lt;span style=&quot;color:#b4960a;&quot;&gt;&amp;lt;&lt;/span&gt;&lt;span style=&quot;color:#0b4f79;&quot;&gt;String&lt;/span&gt;, &lt;span style=&quot;color:#0b4f79;&quot;&gt;String&lt;/span&gt;&lt;span style=&quot;color:#b4960a;&quot;&gt;&amp;gt;&lt;/span&gt;&lt;span style=&quot;color:#0e4a8e;&quot;&gt;&amp;gt;&lt;/span&gt;&lt;span style=&quot;color:#3f9101;&quot;&gt;&amp;gt;&lt;/span&gt;&lt;/div&gt;&lt;/div&gt;" style="endArrow=classic;html=1;rounded=0;edgeStyle=orthogonalEdgeStyle;exitX=0.5;exitY=0;exitDx=0;exitDy=0;strokeColor=#0066CC;fontFamily=Lucida Console;fillColor=#fff2cc;labelBackgroundColor=#FFF2CC;fontSize=24;strokeWidth=2;" parent="1" source="LzeKRFWDxI_c3MoV32VU-13" edge="1">
          <mxGeometry width="50" height="50" relative="1" as="geometry">
            <mxPoint x="8660" y="3759.8900000000003" as="sourcePoint" />
            <mxPoint x="8270" y="3859.8900000000003" as="targetPoint" />
            <Array as="points">
              <mxPoint x="9120" y="3809.8900000000003" />
              <mxPoint x="8270" y="3809.8900000000003" />
              <mxPoint x="8270" y="3859.8900000000003" />
            </Array>
          </mxGeometry>
        </mxCell>
        <mxCell id="LzeKRFWDxI_c3MoV32VU-19" value="&lt;div style=&quot;forced-color-adjust: none; color: rgb(0, 0, 0); font-style: normal; font-variant-ligatures: normal; font-variant-caps: normal; font-weight: 400; letter-spacing: normal; orphans: 2; text-align: center; text-indent: 0px; text-transform: none; widows: 2; word-spacing: 0px; -webkit-text-stroke-width: 0px; text-decoration-thickness: initial; text-decoration-style: initial; text-decoration-color: initial;&quot;&gt;&lt;span style=&quot;forced-color-adjust: none; color: rgb(57, 0, 160);&quot;&gt;List&lt;/span&gt;&lt;span style=&quot;forced-color-adjust: none; color: rgb(63, 145, 1);&quot;&gt;&amp;lt;&lt;/span&gt;&lt;span style=&quot;forced-color-adjust: none; color: rgb(57, 0, 160);&quot;&gt;List&lt;/span&gt;&lt;span style=&quot;forced-color-adjust: none; color: rgb(14, 74, 142);&quot;&gt;&amp;lt;&lt;/span&gt;&lt;span style=&quot;forced-color-adjust: none; color: rgb(57, 0, 160);&quot;&gt;Map&lt;/span&gt;&lt;span style=&quot;forced-color-adjust: none; color: rgb(180, 150, 10);&quot;&gt;&amp;lt;&lt;/span&gt;&lt;span style=&quot;forced-color-adjust: none; color: rgb(11, 79, 121);&quot;&gt;String&lt;/span&gt;, &lt;span style=&quot;forced-color-adjust: none; color: rgb(11, 79, 121);&quot;&gt;String&lt;/span&gt;&lt;/div&gt;" style="edgeStyle=orthogonalEdgeStyle;rounded=0;orthogonalLoop=1;jettySize=auto;html=1;strokeColor=#0066CC;fontFamily=Lucida Console;fillColor=#fff2cc;labelBackgroundColor=#FFF2CC;fontSize=24;strokeWidth=2;" parent="1" source="LzeKRFWDxI_c3MoV32VU-16" target="LzeKRFWDxI_c3MoV32VU-18" edge="1">
          <mxGeometry relative="1" as="geometry" />
        </mxCell>
        <mxCell id="LzeKRFWDxI_c3MoV32VU-16" value="&lt;div&gt;&lt;div&gt;&lt;span style=&quot;color:#0f68a0;&quot;&gt;TableProfilingFacade&lt;/span&gt;&lt;/div&gt;&lt;div&gt;&lt;span style=&quot;color:#326d74;&quot;&gt;processFetchedData()&lt;/span&gt;&lt;/div&gt;&lt;/div&gt;" style="whiteSpace=wrap;html=1;fontFamily=Lucida Console;rounded=1;spacing=4;strokeColor=#0066CC;fillColor=#fff2cc;labelBackgroundColor=#FFF2CC;fontSize=24;strokeWidth=2;" parent="1" vertex="1">
          <mxGeometry x="8110" y="4227.39" width="320" height="80" as="geometry" />
        </mxCell>
        <mxCell id="LzeKRFWDxI_c3MoV32VU-21" value="&lt;div&gt;&lt;span style=&quot;color: light-dark(rgb(0, 0, 0), rgb(237, 237, 237));&quot;&gt;List&amp;lt;Request Json&amp;gt;&lt;/span&gt;&lt;/div&gt;" style="edgeStyle=orthogonalEdgeStyle;rounded=0;orthogonalLoop=1;jettySize=auto;html=1;strokeColor=#0066CC;fontFamily=Lucida Console;fillColor=#fff2cc;labelBackgroundColor=#FFF2CC;fontSize=24;strokeWidth=2;" parent="1" source="LzeKRFWDxI_c3MoV32VU-18" target="LzeKRFWDxI_c3MoV32VU-20" edge="1">
          <mxGeometry relative="1" as="geometry" />
        </mxCell>
        <mxCell id="LzeKRFWDxI_c3MoV32VU-18" value="&lt;div&gt;&lt;div&gt;&lt;span style=&quot;color: rgb(15, 104, 160);&quot;&gt;JsonConverter&lt;/span&gt;&lt;/div&gt;&lt;div&gt;&lt;span style=&quot;color: rgb(50, 109, 116);&quot;&gt;convertToJson()&lt;/span&gt;&lt;/div&gt;&lt;/div&gt;" style="whiteSpace=wrap;html=1;fontFamily=Lucida Console;rounded=1;spacing=4;strokeColor=#0066CC;fillColor=#fff2cc;labelBackgroundColor=#FFF2CC;fontSize=24;strokeWidth=2;" parent="1" vertex="1">
          <mxGeometry x="8625" y="4226.89" width="240" height="80" as="geometry" />
        </mxCell>
        <mxCell id="LzeKRFWDxI_c3MoV32VU-25" value="&lt;div style=&quot;forced-color-adjust: none; font-style: normal; font-variant-ligatures: normal; font-variant-caps: normal; font-weight: 400; letter-spacing: normal; orphans: 2; text-align: center; text-indent: 0px; text-transform: none; widows: 2; word-spacing: 0px; -webkit-text-stroke-width: 0px; text-decoration-thickness: initial; text-decoration-style: initial; text-decoration-color: initial; color: rgb(0, 0, 0);&quot;&gt;&lt;font color=&quot;#3900a0&quot; style=&quot;forced-color-adjust: none;&quot;&gt;Request Json&lt;/font&gt;&lt;/div&gt;" style="edgeStyle=orthogonalEdgeStyle;rounded=0;orthogonalLoop=1;jettySize=auto;html=1;strokeColor=#0066CC;fontFamily=Lucida Console;fillColor=#fff2cc;labelBackgroundColor=#FFF2CC;fontSize=24;strokeWidth=2;" parent="1" source="LzeKRFWDxI_c3MoV32VU-20" target="LzeKRFWDxI_c3MoV32VU-24" edge="1">
          <mxGeometry relative="1" as="geometry" />
        </mxCell>
        <mxCell id="LzeKRFWDxI_c3MoV32VU-20" value="&lt;div&gt;&lt;div&gt;&lt;span style=&quot;color: rgb(50, 109, 116);&quot;&gt;TableProfilingFacade&lt;/span&gt;&lt;/div&gt;&lt;div&gt;&lt;span style=&quot;color: rgb(50, 109, 116);&quot;&gt;getUtilityFromPiiContainer()&lt;/span&gt;&lt;/div&gt;&lt;/div&gt;" style="whiteSpace=wrap;html=1;fontFamily=Lucida Console;rounded=1;spacing=4;strokeColor=#0066CC;fillColor=#fff2cc;labelBackgroundColor=#FFF2CC;fontSize=24;strokeWidth=2;" parent="1" vertex="1">
          <mxGeometry x="8960" y="4226.89" width="430" height="80" as="geometry" />
        </mxCell>
        <mxCell id="LzeKRFWDxI_c3MoV32VU-24" value="&lt;div&gt;&lt;div&gt;&lt;span style=&quot;color: rgb(15, 104, 160);&quot;&gt;PiiModelService&lt;/span&gt;&lt;/div&gt;&lt;div&gt;&lt;span style=&quot;color: rgb(50, 109, 116);&quot;&gt;generateUtilityFromPiiContainer()&lt;/span&gt;&lt;/div&gt;&lt;/div&gt;" style="whiteSpace=wrap;html=1;fontFamily=Lucida Console;rounded=1;spacing=4;strokeColor=#0066CC;fillColor=#fff2cc;labelBackgroundColor=#FFF2CC;fontSize=24;strokeWidth=2;" parent="1" vertex="1">
          <mxGeometry x="9425" y="4226.89" width="500" height="80" as="geometry" />
        </mxCell>
        <mxCell id="LzeKRFWDxI_c3MoV32VU-26" value="&lt;br&gt;&lt;div style=&quot;forced-color-adjust: none; font-style: normal; font-variant-ligatures: normal; font-variant-caps: normal; font-weight: 400; letter-spacing: normal; orphans: 2; text-align: center; text-indent: 0px; text-transform: none; widows: 2; word-spacing: 0px; -webkit-text-stroke-width: 0px; text-decoration-thickness: initial; text-decoration-style: initial; text-decoration-color: initial; color: rgb(0, 0, 0);&quot;&gt;&lt;font color=&quot;#3900a0&quot;&gt;JsonObject&lt;/font&gt;&lt;/div&gt;" style="endArrow=classic;html=1;rounded=0;edgeStyle=orthogonalEdgeStyle;entryX=0.5;entryY=0;entryDx=0;entryDy=0;exitX=0.536;exitY=0.036;exitDx=0;exitDy=0;exitPerimeter=0;strokeColor=#0066CC;fontFamily=Lucida Console;fillColor=#fff2cc;labelBackgroundColor=#FFF2CC;fontSize=24;strokeWidth=2;" parent="1" source="LzeKRFWDxI_c3MoV32VU-24" target="LzeKRFWDxI_c3MoV32VU-20" edge="1">
          <mxGeometry width="50" height="50" relative="1" as="geometry">
            <mxPoint x="9680" y="4131.89" as="sourcePoint" />
            <mxPoint x="9460" y="4091.8900000000003" as="targetPoint" />
            <Array as="points">
              <mxPoint x="9685" y="4131.89" />
              <mxPoint x="9175" y="4131.89" />
            </Array>
          </mxGeometry>
        </mxCell>
        <mxCell id="LzeKRFWDxI_c3MoV32VU-27" value="&lt;div style=&quot;forced-color-adjust: none; font-style: normal; font-variant-ligatures: normal; font-variant-caps: normal; font-weight: 400; letter-spacing: normal; orphans: 2; text-align: center; text-indent: 0px; text-transform: none; widows: 2; word-spacing: 0px; -webkit-text-stroke-width: 0px; text-decoration-thickness: initial; text-decoration-style: initial; text-decoration-color: initial; color: rgb(0, 0, 0);&quot;&gt;&lt;font color=&quot;#3900a0&quot;&gt;List&amp;lt;JsonObject&amp;gt;&lt;/font&gt;&lt;/div&gt;" style="endArrow=classic;html=1;rounded=0;edgeStyle=orthogonalEdgeStyle;exitX=0.536;exitY=0.036;exitDx=0;exitDy=0;exitPerimeter=0;strokeColor=#0066CC;fontFamily=Lucida Console;fillColor=#fff2cc;labelBackgroundColor=#FFF2CC;fontSize=24;strokeWidth=2;" parent="1" target="LzeKRFWDxI_c3MoV32VU-16" edge="1">
          <mxGeometry width="50" height="50" relative="1" as="geometry">
            <mxPoint x="9130" y="4222.39" as="sourcePoint" />
            <mxPoint x="8620" y="4219.39" as="targetPoint" />
            <Array as="points">
              <mxPoint x="9130" y="4129.89" />
              <mxPoint x="8260" y="4129.89" />
            </Array>
          </mxGeometry>
        </mxCell>
        <mxCell id="LzeKRFWDxI_c3MoV32VU-31" value="&lt;div style=&quot;forced-color-adjust: none; color: rgb(0, 0, 0); font-style: normal; font-variant-ligatures: normal; font-variant-caps: normal; font-weight: 400; letter-spacing: normal; orphans: 2; text-align: center; text-indent: 0px; text-transform: none; widows: 2; word-spacing: 0px; -webkit-text-stroke-width: 0px; text-decoration-thickness: initial; text-decoration-style: initial; text-decoration-color: initial;&quot;&gt;&lt;span style=&quot;forced-color-adjust: none; color: rgb(63, 145, 1);&quot;&gt;&lt;font color=&quot;#3900a0&quot; style=&quot;forced-color-adjust: none;&quot;&gt;JsonObject&lt;/font&gt;&lt;/span&gt;&lt;/div&gt;" style="edgeStyle=orthogonalEdgeStyle;rounded=0;orthogonalLoop=1;jettySize=auto;html=1;strokeColor=#0066CC;fontFamily=Lucida Console;fillColor=#fff2cc;labelBackgroundColor=#FFF2CC;fontSize=24;strokeWidth=2;" parent="1" source="LzeKRFWDxI_c3MoV32VU-28" target="LzeKRFWDxI_c3MoV32VU-30" edge="1">
          <mxGeometry relative="1" as="geometry" />
        </mxCell>
        <mxCell id="LzeKRFWDxI_c3MoV32VU-28" value="&lt;div&gt;&lt;div&gt;&lt;span style=&quot;color: rgb(50, 109, 116);&quot;&gt;&lt;div style=&quot;color: rgb(0, 0, 0);&quot;&gt;&lt;span style=&quot;color: rgb(15, 104, 160);&quot;&gt;TableProfilingFacade&lt;/span&gt;&lt;/div&gt;&lt;div&gt;&lt;span style=&quot;color: light-dark(rgb(50, 109, 116), rgb(113, 164, 170)); white-space: normal;&quot;&gt;extractColumnNames()&lt;/span&gt;&lt;/div&gt;&lt;/span&gt;&lt;/div&gt;&lt;/div&gt;" style="whiteSpace=wrap;html=1;fontFamily=Lucida Console;rounded=1;spacing=4;strokeColor=#0066CC;fillColor=#fff2cc;labelBackgroundColor=#FFF2CC;fontSize=24;strokeWidth=2;" parent="1" vertex="1">
          <mxGeometry x="8110" y="4665.39" width="320" height="80" as="geometry" />
        </mxCell>
        <mxCell id="LzeKRFWDxI_c3MoV32VU-33" value="&#xa;&lt;div style=&quot;forced-color-adjust: none; color: light-dark(rgb(0, 0, 0), rgb(237, 237, 237)); font-style: normal; font-variant-ligatures: normal; font-variant-caps: normal; font-weight: 400; letter-spacing: normal; orphans: 2; text-align: center; text-indent: 0px; text-transform: none; widows: 2; word-spacing: 0px; -webkit-text-stroke-width: 0px; text-decoration-thickness: initial; text-decoration-style: initial; text-decoration-color: initial;&quot; data-mx-given-colors=&quot;{&amp;quot;color&amp;quot;:&amp;quot;rgb(0, 0, 0)&amp;quot;}&quot;&gt;&lt;span data-mx-given-colors=&quot;{&amp;quot;color&amp;quot;:&amp;quot;rgb(63, 145, 1)&amp;quot;}&quot; style=&quot;forced-color-adjust: none; color: light-dark(rgb(63, 145, 1), rgb(89, 160, 36));&quot;&gt;&lt;font color=&quot;#3900a0&quot; data-mx-given-colors=&quot;{&amp;quot;color&amp;quot;:&amp;quot;&amp;quot;}&quot; style=&quot;forced-color-adjust: none; color: light-dark(rgb(57, 0, 160), rgb(245, 196, 255));&quot;&gt;JsonObject&lt;/font&gt;&lt;/span&gt;&lt;/div&gt;&#xa;&#xa;" style="edgeStyle=orthogonalEdgeStyle;rounded=0;orthogonalLoop=1;jettySize=auto;html=1;strokeColor=#0066CC;fontFamily=Lucida Console;fillColor=#fff2cc;labelBackgroundColor=#FFF2CC;fontSize=24;strokeWidth=2;" parent="1" source="LzeKRFWDxI_c3MoV32VU-30" target="LzeKRFWDxI_c3MoV32VU-32" edge="1">
          <mxGeometry relative="1" as="geometry" />
        </mxCell>
        <mxCell id="LzeKRFWDxI_c3MoV32VU-30" value="&lt;div style=&quot;color: rgb(0, 0, 0);&quot;&gt;&lt;div&gt;&lt;span style=&quot;color: rgb(15, 104, 160);&quot;&gt;TableProfilingFacade&lt;/span&gt;&lt;/div&gt;&lt;div&gt;&lt;span style=&quot;color: rgb(15, 104, 160);&quot;&gt;extractMetadata()&lt;/span&gt;&lt;/div&gt;&lt;/div&gt;" style="whiteSpace=wrap;html=1;fontFamily=Lucida Console;rounded=1;spacing=4;strokeColor=#0066CC;fillColor=#fff2cc;labelBackgroundColor=#FFF2CC;fontSize=24;strokeWidth=2;" parent="1" vertex="1">
          <mxGeometry x="8510" y="4665.39" width="320" height="80" as="geometry" />
        </mxCell>
        <mxCell id="LzeKRFWDxI_c3MoV32VU-32" value="&lt;div style=&quot;color: rgb(0, 0, 0);&quot;&gt;&lt;div&gt;&lt;span style=&quot;color: rgb(50, 109, 116);&quot;&gt;&lt;div style=&quot;color: rgb(0, 0, 0);&quot;&gt;&lt;span style=&quot;color: rgb(15, 104, 160);&quot;&gt;TableProfilingFacade&lt;/span&gt;&lt;/div&gt;&lt;/span&gt;&lt;/div&gt;&lt;div&gt;&lt;span style=&quot;color: rgb(50, 109, 116);&quot;&gt;processMetaData()&lt;/span&gt;&lt;/div&gt;&lt;/div&gt;" style="whiteSpace=wrap;html=1;fontFamily=Lucida Console;rounded=1;spacing=4;strokeColor=#0066CC;fillColor=#fff2cc;labelBackgroundColor=#FFF2CC;fontSize=24;strokeWidth=2;" parent="1" vertex="1">
          <mxGeometry x="8960" y="4665.39" width="320" height="80" as="geometry" />
        </mxCell>
        <mxCell id="LzeKRFWDxI_c3MoV32VU-35" value="&lt;div style=&quot;color: rgb(0, 0, 0);&quot;&gt;&lt;div&gt;Pair&amp;lt;List&amp;lt;FieldsUtilityParamAndPrivacyDto&amp;gt;, columnNames&amp;gt;&lt;br&gt;&lt;/div&gt;&lt;/div&gt;" style="endArrow=classic;html=1;rounded=0;entryX=0.5;entryY=0;entryDx=0;entryDy=0;exitX=0.5;exitY=0;exitDx=0;exitDy=0;edgeStyle=orthogonalEdgeStyle;strokeColor=#0066CC;fontFamily=Lucida Console;fillColor=#fff2cc;labelBackgroundColor=#FFF2CC;fontSize=24;strokeWidth=2;" parent="1" source="LzeKRFWDxI_c3MoV32VU-32" target="LzeKRFWDxI_c3MoV32VU-28" edge="1">
          <mxGeometry width="50" height="50" relative="1" as="geometry">
            <mxPoint x="9050" y="4640.39" as="sourcePoint" />
            <mxPoint x="9100" y="4590.39" as="targetPoint" />
            <Array as="points">
              <mxPoint x="9120" y="4620.39" />
              <mxPoint x="8270" y="4620.39" />
            </Array>
          </mxGeometry>
        </mxCell>
        <mxCell id="LzeKRFWDxI_c3MoV32VU-36" value="&lt;div&gt;&lt;div&gt;&lt;div&gt;&lt;span style=&quot;color:#9b2393;font-weight:bold;&quot;&gt;private &lt;/span&gt;&lt;span style=&quot;color:#0b4f79;&quot;&gt;String &lt;/span&gt;&lt;span style=&quot;color:#0f68a0;&quot;&gt;fieldName&lt;/span&gt;;&lt;br&gt;&lt;br&gt;&lt;span style=&quot;color:#9b2393;font-weight:bold;&quot;&gt;private &lt;/span&gt;&lt;span style=&quot;color:#0b4f79;&quot;&gt;String &lt;/span&gt;&lt;span style=&quot;color:#0f68a0;&quot;&gt;piiCategory&lt;/span&gt;;&lt;br&gt;&lt;br&gt;&lt;span style=&quot;color:#9b2393;font-weight:bold;&quot;&gt;private &lt;/span&gt;&lt;span style=&quot;color:#0b4f79;&quot;&gt;String &lt;/span&gt;&lt;span style=&quot;color:#0f68a0;&quot;&gt;privacyRelevance&lt;/span&gt;;&lt;/div&gt;&lt;/div&gt;&lt;/div&gt;" style="rounded=1;whiteSpace=wrap;html=1;fontFamily=Lucida Console;strokeColor=#0066CC;fillColor=#fff2cc;labelBackgroundColor=#FFF2CC;fontSize=24;strokeWidth=2;" parent="1" vertex="1">
          <mxGeometry x="8425" y="4445.39" width="490" height="160" as="geometry" />
        </mxCell>
        <mxCell id="LzeKRFWDxI_c3MoV32VU-37" value="&lt;div style=&quot;color: rgb(0, 0, 0);&quot;&gt;&lt;div&gt;&lt;div&gt;&lt;div&gt;&lt;span style=&quot;color:#0b4f79;&quot;&gt;FieldsUtilityParamAndPrivacyDto&lt;/span&gt;&lt;/div&gt;&lt;/div&gt;&lt;/div&gt;&lt;/div&gt;" style="text;whiteSpace=wrap;html=1;fontFamily=Lucida Console;strokeColor=#0066CC;fillColor=#fff2cc;labelBackgroundColor=#FFF2CC;fontSize=24;strokeWidth=2;" parent="1" vertex="1">
          <mxGeometry x="8560" y="4430.39" width="470" height="40" as="geometry" />
        </mxCell>
        <mxCell id="LzeKRFWDxI_c3MoV32VU-38" value="&lt;div&gt;&lt;div&gt;&lt;span style=&quot;color: rgb(15, 104, 160);&quot;&gt;TableHistoryFacade&lt;/span&gt;&lt;/div&gt;&lt;div&gt;&lt;span style=&quot;color: rgb(50, 109, 116);&quot;&gt;markTableAsNotRelevant()&lt;/span&gt;&lt;/div&gt;&lt;/div&gt;" style="whiteSpace=wrap;html=1;fontFamily=Lucida Console;rounded=1;spacing=4;strokeColor=#0066CC;fillColor=#fff2cc;labelBackgroundColor=#FFF2CC;fontSize=24;strokeWidth=2;" parent="1" vertex="1">
          <mxGeometry x="8095" y="4909.889999999999" width="370" height="80" as="geometry" />
        </mxCell>
        <mxCell id="LzeKRFWDxI_c3MoV32VU-45" value="&lt;div style=&quot;color: rgb(0, 0, 0);&quot;&gt;&lt;div&gt;&lt;span style=&quot;color: rgb(108, 54, 169);&quot;&gt;tableName&lt;/span&gt;&lt;/div&gt;&lt;div&gt;&lt;span style=&quot;color: rgb(108, 54, 169);&quot;&gt;columnNames&lt;/span&gt;&lt;/div&gt;&lt;/div&gt;" style="edgeStyle=entityRelationEdgeStyle;rounded=0;orthogonalLoop=1;jettySize=auto;html=1;strokeColor=#0066CC;fontFamily=Lucida Console;fillColor=#fff2cc;labelBackgroundColor=#FFF2CC;fontSize=24;strokeWidth=2;" parent="1" source="LzeKRFWDxI_c3MoV32VU-40" target="LzeKRFWDxI_c3MoV32VU-44" edge="1">
          <mxGeometry relative="1" as="geometry" />
        </mxCell>
        <mxCell id="LzeKRFWDxI_c3MoV32VU-47" value="&lt;div style=&quot;color: rgb(0, 0, 0);&quot;&gt;&lt;div&gt;&lt;span style=&quot;color: rgb(108, 54, 169);&quot;&gt;utilitySetId&lt;/span&gt;&lt;/div&gt;&lt;div&gt;&lt;span style=&quot;color: rgb(108, 54, 169);&quot;&gt;utilitySetTableRequestDto&lt;/span&gt;&lt;/div&gt;&lt;/div&gt;" style="edgeStyle=entityRelationEdgeStyle;rounded=0;orthogonalLoop=1;jettySize=auto;html=1;strokeColor=#0066CC;fontFamily=Lucida Console;fillColor=#fff2cc;labelBackgroundColor=#FFF2CC;fontSize=24;strokeWidth=2;" parent="1" source="LzeKRFWDxI_c3MoV32VU-40" target="LzeKRFWDxI_c3MoV32VU-46" edge="1">
          <mxGeometry relative="1" as="geometry" />
        </mxCell>
        <mxCell id="LzeKRFWDxI_c3MoV32VU-51" value="&lt;div style=&quot;color: rgb(0, 0, 0);&quot;&gt;&lt;div&gt;&lt;span style=&quot;color: rgb(108, 54, 169);&quot;&gt;runConditionsDto&lt;/span&gt;&lt;/div&gt;&lt;div&gt;&lt;span style=&quot;color: rgb(108, 54, 169);&quot;&gt;utilitySetResponseDto&lt;/span&gt;&lt;/div&gt;&lt;div&gt;&lt;span style=&quot;color: rgb(108, 54, 169);&quot;&gt;fieldsUtilityParamAndPrivacyDtos&lt;/span&gt;&lt;/div&gt;&lt;/div&gt;" style="edgeStyle=entityRelationEdgeStyle;rounded=0;orthogonalLoop=1;jettySize=auto;html=1;entryX=0;entryY=0.5;entryDx=0;entryDy=0;strokeColor=#0066CC;fontFamily=Lucida Console;fillColor=#fff2cc;labelBackgroundColor=#FFF2CC;fontSize=24;strokeWidth=2;" parent="1" source="LzeKRFWDxI_c3MoV32VU-40" target="LzeKRFWDxI_c3MoV32VU-52" edge="1">
          <mxGeometry relative="1" as="geometry">
            <mxPoint x="8415" y="5695" as="targetPoint" />
          </mxGeometry>
        </mxCell>
        <mxCell id="LzeKRFWDxI_c3MoV32VU-40" value="&lt;div&gt;&lt;div&gt;&lt;span style=&quot;color: rgb(15, 104, 160);&quot;&gt;UtilitySetOperationFacade&lt;/span&gt;&lt;/div&gt;&lt;div&gt;&lt;span style=&quot;color: rgb(50, 109, 116);&quot;&gt;processUtilitySetTable()&lt;/span&gt;&lt;/div&gt;&lt;/div&gt;" style="whiteSpace=wrap;html=1;fontFamily=Lucida Console;rounded=1;spacing=4;strokeColor=#0066CC;fillColor=#fff2cc;labelBackgroundColor=#FFF2CC;fontSize=24;strokeWidth=2;" parent="1" vertex="1">
          <mxGeometry x="8090" y="5360" width="390" height="80" as="geometry" />
        </mxCell>
        <mxCell id="LzeKRFWDxI_c3MoV32VU-44" value="&lt;div&gt;&lt;div&gt;&lt;span style=&quot;color: rgb(50, 109, 116);&quot;&gt;&lt;div style=&quot;color: rgb(0, 0, 0);&quot;&gt;&lt;span style=&quot;color: rgb(15, 104, 160);&quot;&gt;utilitySetOperationFacade&lt;/span&gt;&lt;/div&gt;&lt;/span&gt;&lt;/div&gt;&lt;div&gt;&lt;span style=&quot;color: rgb(50, 109, 116);&quot;&gt;createUtilitySetTableRequest()&lt;/span&gt;&lt;/div&gt;&lt;/div&gt;" style="whiteSpace=wrap;html=1;fontFamily=Lucida Console;rounded=1;spacing=4;strokeColor=#0066CC;fillColor=#fff2cc;labelBackgroundColor=#FFF2CC;fontSize=24;strokeWidth=2;" parent="1" vertex="1">
          <mxGeometry x="8965" y="5065" width="460" height="80" as="geometry" />
        </mxCell>
        <mxCell id="LzeKRFWDxI_c3MoV32VU-46" value="&lt;div&gt;&lt;span style=&quot;color: rgb(50, 109, 116);&quot;&gt;&lt;div style=&quot;color: rgb(0, 0, 0);&quot;&gt;&lt;span style=&quot;color: rgb(15, 104, 160);&quot;&gt;utilitySetOperationFacade&lt;/span&gt;&lt;/div&gt;&lt;/span&gt;&lt;/div&gt;&lt;div&gt;&lt;span style=&quot;color: rgb(50, 109, 116);&quot;&gt;createTableInUtilitySet()&lt;/span&gt;&lt;/div&gt;" style="whiteSpace=wrap;html=1;fontFamily=Lucida Console;rounded=1;spacing=4;strokeColor=#0066CC;fillColor=#fff2cc;labelBackgroundColor=#FFF2CC;fontSize=24;strokeWidth=2;" parent="1" vertex="1">
          <mxGeometry x="8985" y="5360" width="390" height="80" as="geometry" />
        </mxCell>
        <mxCell id="LzeKRFWDxI_c3MoV32VU-79" value="&lt;div style=&quot;color: rgb(0, 0, 0);&quot;&gt;&lt;div&gt;&lt;span style=&quot;color:#0b4f79;&quot;&gt;FieldsUtilityParamAndPrivacyDto&lt;/span&gt;&lt;/div&gt;&lt;/div&gt;" style="edgeStyle=entityRelationEdgeStyle;rounded=0;orthogonalLoop=1;jettySize=auto;html=1;strokeColor=#0066CC;fontFamily=Lucida Console;fillColor=#fff2cc;labelBackgroundColor=#FFF2CC;fontSize=24;strokeWidth=2;" parent="1" source="LzeKRFWDxI_c3MoV32VU-52" target="LzeKRFWDxI_c3MoV32VU-78" edge="1">
          <mxGeometry relative="1" as="geometry" />
        </mxCell>
        <mxCell id="LzeKRFWDxI_c3MoV32VU-90" value="&lt;div style=&quot;color: rgb(0, 0, 0);&quot;&gt;&lt;div&gt;&lt;span style=&quot;color:#6c36a9;&quot;&gt;tableResponseDto&lt;/span&gt;.&lt;span style=&quot;color:#326d74;&quot;&gt;getId&lt;/span&gt;&lt;span style=&quot;color:#0e4a8e;&quot;&gt;()&lt;/span&gt;, &lt;span style=&quot;color:#6c36a9;&quot;&gt;columnSetDtos&lt;/span&gt;&lt;/div&gt;&lt;/div&gt;" style="edgeStyle=entityRelationEdgeStyle;rounded=0;orthogonalLoop=1;jettySize=auto;html=1;strokeColor=#0066CC;fontFamily=Lucida Console;fillColor=#fff2cc;labelBackgroundColor=#FFF2CC;fontSize=24;strokeWidth=2;" parent="1" source="LzeKRFWDxI_c3MoV32VU-52" target="LzeKRFWDxI_c3MoV32VU-89" edge="1">
          <mxGeometry relative="1" as="geometry" />
        </mxCell>
        <mxCell id="LzeKRFWDxI_c3MoV32VU-52" value="&lt;div&gt;&lt;span style=&quot;color: rgb(50, 109, 116);&quot;&gt;&lt;div style=&quot;color: rgb(0, 0, 0);&quot;&gt;&lt;span style=&quot;color: rgb(15, 104, 160);&quot;&gt;utilitySetOperationFacade&lt;/span&gt;&lt;/div&gt;&lt;/span&gt;&lt;/div&gt;&lt;div&gt;&lt;span style=&quot;color: rgb(50, 109, 116);&quot;&gt;createColumnInTableForDataBase()&lt;/span&gt;&lt;/div&gt;" style="whiteSpace=wrap;html=1;fontFamily=Lucida Console;rounded=1;spacing=4;strokeColor=#0066CC;fillColor=#fff2cc;labelBackgroundColor=#FFF2CC;fontSize=24;strokeWidth=2;" parent="1" vertex="1">
          <mxGeometry x="8960" y="5655" width="490" height="80" as="geometry" />
        </mxCell>
        <mxCell id="LzeKRFWDxI_c3MoV32VU-54" value="&lt;div&gt;&lt;div&gt;&lt;span style=&quot;color: rgb(15, 104, 160);&quot;&gt;TableHistoryFacade&lt;/span&gt;&lt;/div&gt;&lt;div&gt;&lt;span style=&quot;color: rgb(50, 109, 116);&quot;&gt;markTableAsCreated()&lt;/span&gt;&lt;/div&gt;&lt;/div&gt;" style="whiteSpace=wrap;html=1;fontFamily=Lucida Console;rounded=1;spacing=4;strokeColor=#0066CC;fillColor=#fff2cc;labelBackgroundColor=#FFF2CC;fontSize=24;strokeWidth=2;" parent="1" vertex="1">
          <mxGeometry x="8105" y="5710" width="320" height="80" as="geometry" />
        </mxCell>
        <mxCell id="LzeKRFWDxI_c3MoV32VU-56" value="&lt;div&gt;&lt;div&gt;&lt;span style=&quot;color:#0f68a0;&quot;&gt;JobHistoryFacade&lt;/span&gt;&lt;/div&gt;&lt;div&gt;&lt;span style=&quot;color:#326d74;&quot;&gt;markJobAsPartialSuccess()&lt;/span&gt;&lt;/div&gt;&lt;/div&gt;" style="whiteSpace=wrap;html=1;fontFamily=Lucida Console;rounded=1;spacing=4;strokeColor=#0066CC;fillColor=#fff2cc;labelBackgroundColor=#FFF2CC;fontSize=24;strokeWidth=2;" parent="1" vertex="1">
          <mxGeometry x="8090" y="6030" width="390" height="80" as="geometry" />
        </mxCell>
        <mxCell id="LzeKRFWDxI_c3MoV32VU-58" value="try { ... } block" style="whiteSpace=wrap;html=1;fontFamily=Lucida Console;rounded=1;spacing=4;strokeColor=#0066CC;fillColor=#fff2cc;labelBackgroundColor=#FFF2CC;fontSize=24;strokeWidth=2;" parent="1" vertex="1">
          <mxGeometry x="6790" y="4320" width="270" height="50" as="geometry" />
        </mxCell>
        <mxCell id="LzeKRFWDxI_c3MoV32VU-63" value="&lt;div style=&quot;color: rgb(0, 0, 0);&quot;&gt;&lt;div&gt;&lt;span style=&quot;color: rgb(108, 54, 169);&quot;&gt;&lt;div style=&quot;color: rgb(0, 0, 0);&quot;&gt;&lt;span style=&quot;color: rgb(15, 104, 160);&quot;&gt;e&lt;/span&gt;&lt;/div&gt;&lt;div style=&quot;color: rgb(0, 0, 0);&quot;&gt;&lt;span style=&quot;color: rgb(15, 104, 160);&quot;&gt;tableName&lt;/span&gt;&lt;/div&gt;&lt;/span&gt;&lt;/div&gt;&lt;div&gt;&lt;span style=&quot;color: rgb(108, 54, 169);&quot;&gt;aiUtilityTableHistory&lt;/span&gt;&lt;/div&gt;&lt;/div&gt;" style="edgeStyle=orthogonalEdgeStyle;rounded=0;orthogonalLoop=1;jettySize=auto;html=1;strokeColor=#0066CC;fontFamily=Lucida Console;fillColor=#fff2cc;labelBackgroundColor=#FFF2CC;fontSize=24;strokeWidth=2;" parent="1" source="LzeKRFWDxI_c3MoV32VU-60" target="LzeKRFWDxI_c3MoV32VU-62" edge="1">
          <mxGeometry relative="1" as="geometry" />
        </mxCell>
        <mxCell id="LzeKRFWDxI_c3MoV32VU-60" value="catch(Exception e)" style="whiteSpace=wrap;html=1;fontFamily=Lucida Console;rounded=1;spacing=4;strokeColor=#0066CC;fillColor=#fff2cc;labelBackgroundColor=#FFF2CC;fontSize=24;strokeWidth=2;" parent="1" vertex="1">
          <mxGeometry x="6790" y="6375" width="290" height="50" as="geometry" />
        </mxCell>
        <mxCell id="LzeKRFWDxI_c3MoV32VU-62" value="&lt;div&gt;&lt;div&gt;&lt;span style=&quot;color:#0f68a0;&quot;&gt;TableHistoryFacade&lt;/span&gt;&lt;/div&gt;&lt;div&gt;&lt;span style=&quot;color:#326d74;&quot;&gt;handleTableProcessingFailure()&lt;/span&gt;&lt;/div&gt;&lt;/div&gt;" style="whiteSpace=wrap;html=1;fontFamily=Lucida Console;rounded=1;spacing=4;strokeColor=#0066CC;fillColor=#fff2cc;labelBackgroundColor=#FFF2CC;fontSize=24;strokeWidth=2;" parent="1" vertex="1">
          <mxGeometry x="7225" y="6360" width="460" height="80" as="geometry" />
        </mxCell>
        <mxCell id="LzeKRFWDxI_c3MoV32VU-66" value="try {...} block" style="whiteSpace=wrap;html=1;fontFamily=Lucida Console;rounded=1;spacing=4;strokeColor=#0066CC;fillColor=#fff2cc;labelBackgroundColor=#FFF2CC;fontSize=24;strokeWidth=2;" parent="1" vertex="1">
          <mxGeometry x="2780" y="2544.89" width="240" height="50" as="geometry" />
        </mxCell>
        <mxCell id="LzeKRFWDxI_c3MoV32VU-71" value="" style="edgeStyle=orthogonalEdgeStyle;rounded=0;orthogonalLoop=1;jettySize=auto;html=1;strokeColor=#0066CC;fontFamily=Lucida Console;fillColor=#fff2cc;labelBackgroundColor=#FFF2CC;fontSize=24;strokeWidth=2;" parent="1" source="LzeKRFWDxI_c3MoV32VU-68" target="LzeKRFWDxI_c3MoV32VU-70" edge="1">
          <mxGeometry relative="1" as="geometry" />
        </mxCell>
        <mxCell id="LzeKRFWDxI_c3MoV32VU-68" value="catch(Exception e)" style="whiteSpace=wrap;html=1;fontFamily=Lucida Console;rounded=1;spacing=4;strokeColor=#0066CC;fillColor=#fff2cc;labelBackgroundColor=#FFF2CC;fontSize=24;strokeWidth=2;" parent="1" vertex="1">
          <mxGeometry x="2230" y="2529.89" width="290" height="50" as="geometry" />
        </mxCell>
        <mxCell id="LzeKRFWDxI_c3MoV32VU-70" value="&lt;div&gt;&lt;div&gt;&lt;span style=&quot;color:#0b4f79;&quot;&gt;Thread&lt;/span&gt;.&lt;span style=&quot;color:#6c36a9;&quot;&gt;currentThread&lt;/span&gt;&lt;span style=&quot;color:#0e4a8e;&quot;&gt;()&lt;/span&gt;.&lt;span style=&quot;color:#326d74;&quot;&gt;interrupt&lt;/span&gt;&lt;span style=&quot;color:#0e4a8e;&quot;&gt;()&lt;/span&gt;&lt;/div&gt;&lt;/div&gt;" style="whiteSpace=wrap;html=1;fontFamily=Lucida Console;rounded=1;spacing=4;strokeColor=#0066CC;fillColor=#fff2cc;labelBackgroundColor=#FFF2CC;fontSize=24;strokeWidth=2;" parent="1" vertex="1">
          <mxGeometry x="2115" y="2654.89" width="520" height="50" as="geometry" />
        </mxCell>
        <mxCell id="LzeKRFWDxI_c3MoV32VU-77" value="" style="edgeStyle=orthogonalEdgeStyle;rounded=0;orthogonalLoop=1;jettySize=auto;html=1;strokeColor=#0066CC;fontFamily=Lucida Console;fillColor=#fff2cc;labelBackgroundColor=#FFF2CC;fontSize=24;strokeWidth=2;" parent="1" source="LzeKRFWDxI_c3MoV32VU-72" target="LzeKRFWDxI_c3MoV32VU-76" edge="1">
          <mxGeometry relative="1" as="geometry" />
        </mxCell>
        <mxCell id="LzeKRFWDxI_c3MoV32VU-72" value="&lt;div&gt;&lt;div&gt;&lt;span style=&quot;color:#9b2393;font-weight:bold;&quot;&gt;finally block&lt;/span&gt;&lt;/div&gt;&lt;/div&gt;" style="whiteSpace=wrap;html=1;fontFamily=Lucida Console;rounded=1;spacing=4;strokeColor=#0066CC;fillColor=#fff2cc;labelBackgroundColor=#FFF2CC;fontSize=24;strokeWidth=2;" parent="1" vertex="1">
          <mxGeometry x="1770" y="2544.89" width="220" height="50" as="geometry" />
        </mxCell>
        <mxCell id="LzeKRFWDxI_c3MoV32VU-76" value="&lt;div&gt;&lt;div&gt;&lt;span style=&quot;color:#0f68a0;&quot;&gt;JobHistoryFacade&lt;/span&gt;&lt;/div&gt;&lt;div&gt;&lt;span style=&quot;color:#326d74;&quot;&gt;finalizeJobStatus()&lt;/span&gt;&lt;/div&gt;&lt;/div&gt;" style="whiteSpace=wrap;html=1;fontFamily=Lucida Console;rounded=1;spacing=4;strokeColor=#0066CC;fillColor=#fff2cc;labelBackgroundColor=#FFF2CC;fontSize=24;strokeWidth=2;" parent="1" vertex="1">
          <mxGeometry x="1730" y="2669.89" width="300" height="80" as="geometry" />
        </mxCell>
        <mxCell id="LzeKRFWDxI_c3MoV32VU-81" value="&lt;div style=&quot;color: rgb(0, 0, 0);&quot;&gt;&lt;div&gt;&lt;span style=&quot;color: rgb(11, 79, 121);&quot;&gt;FieldsUtilityParamAndPrivacyDto &lt;/span&gt;&lt;span style=&quot;color: rgb(108, 54, 169);&quot;&gt;fieldDto&lt;/span&gt;&lt;/div&gt;&lt;div&gt;&lt;span style=&quot;color: rgb(57, 0, 160);&quot;&gt;List&lt;/span&gt;&lt;span style=&quot;color: rgb(63, 145, 1);&quot;&gt;&amp;lt;&lt;/span&gt;&lt;span style=&quot;color: rgb(11, 79, 121);&quot;&gt;PsRunConditionsDto&lt;/span&gt;&lt;span style=&quot;color: rgb(63, 145, 1);&quot;&gt;&amp;gt; &lt;/span&gt;&lt;span style=&quot;color: rgb(108, 54, 169);&quot;&gt;runConditionsDto&lt;/span&gt;&lt;/div&gt;&lt;/div&gt;" style="edgeStyle=orthogonalEdgeStyle;rounded=0;orthogonalLoop=1;jettySize=auto;html=1;strokeColor=#0066CC;fontFamily=Lucida Console;fillColor=#fff2cc;labelBackgroundColor=#FFF2CC;fontSize=24;strokeWidth=2;" parent="1" source="LzeKRFWDxI_c3MoV32VU-78" target="LzeKRFWDxI_c3MoV32VU-80" edge="1">
          <mxGeometry relative="1" as="geometry" />
        </mxCell>
        <mxCell id="LzeKRFWDxI_c3MoV32VU-78" value="&lt;div&gt;&lt;div&gt;&lt;div&gt;&lt;div&gt;&lt;span style=&quot;color:#0b4f79;&quot;&gt;UtilitySetOperationFacade&lt;/span&gt;&lt;/div&gt;&lt;/div&gt;&lt;/div&gt;&lt;div&gt;&lt;span style=&quot;color:#326d74;&quot;&gt;buildColumnSetDto()&lt;/span&gt;&lt;/div&gt;&lt;/div&gt;" style="whiteSpace=wrap;html=1;fontFamily=Lucida Console;rounded=1;spacing=4;strokeColor=#0066CC;fillColor=#fff2cc;labelBackgroundColor=#FFF2CC;fontSize=24;strokeWidth=2;" parent="1" vertex="1">
          <mxGeometry x="9620" y="5470" width="390" height="80" as="geometry" />
        </mxCell>
        <mxCell id="LzeKRFWDxI_c3MoV32VU-83" value="&lt;div style=&quot;color: rgb(0, 0, 0);&quot;&gt;&lt;div style=&quot;color: light-dark(rgb(0, 0, 0), rgb(237, 237, 237));&quot;&gt;&lt;span style=&quot;color: rgb(108, 54, 169);&quot;&gt;PiiCategory&lt;/span&gt;&lt;/div&gt;&lt;div style=&quot;color: light-dark(rgb(0, 0, 0), rgb(237, 237, 237));&quot;&gt;&lt;span style=&quot;color: rgb(108, 54, 169);&quot;&gt;columnSetDto&lt;/span&gt;&lt;/div&gt;&lt;div&gt;&lt;span style=&quot;color: rgb(108, 54, 169);&quot;&gt;runConditionsDto&lt;/span&gt;&lt;/div&gt;&lt;/div&gt;" style="edgeStyle=orthogonalEdgeStyle;rounded=0;orthogonalLoop=1;jettySize=auto;html=1;strokeColor=#0066CC;fontFamily=Lucida Console;fillColor=#fff2cc;labelBackgroundColor=#FFF2CC;fontSize=24;strokeWidth=2;" parent="1" source="LzeKRFWDxI_c3MoV32VU-80" target="LzeKRFWDxI_c3MoV32VU-82" edge="1">
          <mxGeometry relative="1" as="geometry" />
        </mxCell>
        <mxCell id="LzeKRFWDxI_c3MoV32VU-80" value="&lt;div style=&quot;color: rgb(0, 0, 0);&quot;&gt;&lt;div&gt;&lt;span style=&quot;color: rgb(15, 104, 160);&quot;&gt;&lt;div style=&quot;color: rgb(0, 0, 0);&quot;&gt;&lt;div&gt;&lt;span style=&quot;color: rgb(11, 79, 121);&quot;&gt;UtilitySetOperationFacade&lt;/span&gt;&lt;/div&gt;&lt;/div&gt;&lt;/span&gt;&lt;/div&gt;&lt;div&gt;&lt;span style=&quot;color: rgb(15, 104, 160);&quot;&gt;buildColumnSetDto()&lt;/span&gt;&lt;/div&gt;&lt;/div&gt;" style="whiteSpace=wrap;html=1;fontFamily=Lucida Console;rounded=1;spacing=4;strokeColor=#0066CC;fillColor=#fff2cc;labelBackgroundColor=#FFF2CC;fontSize=24;strokeWidth=2;" parent="1" vertex="1">
          <mxGeometry x="10235" y="5470" width="390" height="80" as="geometry" />
        </mxCell>
        <mxCell id="LzeKRFWDxI_c3MoV32VU-85" value="&lt;div style=&quot;color: rgb(0, 0, 0);&quot;&gt;&lt;div&gt;&lt;div&gt;&lt;span style=&quot;color: rgb(108, 54, 169);&quot;&gt;runConditionsDto.isEmpty()&lt;/span&gt;&lt;/div&gt;&lt;/div&gt;&lt;/div&gt;" style="edgeStyle=entityRelationEdgeStyle;rounded=0;orthogonalLoop=1;jettySize=auto;html=1;strokeColor=#0066CC;fontFamily=Lucida Console;fillColor=#fff2cc;labelBackgroundColor=#FFF2CC;fontSize=24;strokeWidth=2;" parent="1" source="LzeKRFWDxI_c3MoV32VU-82" target="LzeKRFWDxI_c3MoV32VU-84" edge="1">
          <mxGeometry relative="1" as="geometry" />
        </mxCell>
        <mxCell id="LzeKRFWDxI_c3MoV32VU-87" value="" style="edgeStyle=entityRelationEdgeStyle;rounded=0;orthogonalLoop=1;jettySize=auto;html=1;strokeColor=#0066CC;fontFamily=Lucida Console;fillColor=#fff2cc;labelBackgroundColor=#FFF2CC;fontSize=24;strokeWidth=2;" parent="1" source="LzeKRFWDxI_c3MoV32VU-82" target="LzeKRFWDxI_c3MoV32VU-86" edge="1">
          <mxGeometry relative="1" as="geometry" />
        </mxCell>
        <mxCell id="LzeKRFWDxI_c3MoV32VU-82" value="&lt;div&gt;&lt;div&gt;&lt;span style=&quot;color: rgb(15, 104, 160);&quot;&gt;AutoUtilityParamHandler&lt;/span&gt;&lt;/div&gt;&lt;div&gt;&lt;span style=&quot;color: rgb(50, 109, 116);&quot;&gt;setUtilityParam()&lt;/span&gt;&lt;/div&gt;&lt;/div&gt;" style="whiteSpace=wrap;html=1;fontFamily=Lucida Console;rounded=1;spacing=4;strokeColor=#0066CC;fillColor=#fff2cc;labelBackgroundColor=#FFF2CC;fontSize=24;strokeWidth=2;" parent="1" vertex="1">
          <mxGeometry x="10780" y="5470" width="360" height="80" as="geometry" />
        </mxCell>
        <mxCell id="LzeKRFWDxI_c3MoV32VU-84" value="&lt;div&gt;&lt;div&gt;&lt;span style=&quot;color: rgb(50, 109, 116);&quot;&gt;&lt;div style=&quot;color: rgb(0, 0, 0);&quot;&gt;&lt;span style=&quot;color: rgb(15, 104, 160);&quot;&gt;AutoUtilityParamHandler&lt;/span&gt;&lt;/div&gt;&lt;/span&gt;&lt;/div&gt;&lt;div&gt;&lt;span style=&quot;color: rgb(50, 109, 116);&quot;&gt;setBasicUtilityParam()&lt;/span&gt;&lt;/div&gt;&lt;/div&gt;" style="whiteSpace=wrap;html=1;fontFamily=Lucida Console;rounded=1;spacing=4;strokeColor=#0066CC;fillColor=#fff2cc;labelBackgroundColor=#FFF2CC;fontSize=24;strokeWidth=2;" parent="1" vertex="1">
          <mxGeometry x="11300" y="5320" width="360" height="80" as="geometry" />
        </mxCell>
        <mxCell id="LzeKRFWDxI_c3MoV32VU-86" value="&lt;div&gt;&lt;div&gt;&lt;span style=&quot;color: rgb(50, 109, 116);&quot;&gt;&lt;div style=&quot;color: rgb(0, 0, 0);&quot;&gt;&lt;span style=&quot;color: rgb(15, 104, 160);&quot;&gt;AutoUtilityParamHandler&lt;/span&gt;&lt;/div&gt;&lt;/span&gt;&lt;/div&gt;&lt;div&gt;&lt;span style=&quot;color: rgb(50, 109, 116);&quot;&gt;setMappedUtilityParam&lt;/span&gt;&lt;/div&gt;&lt;/div&gt;" style="whiteSpace=wrap;html=1;fontFamily=Lucida Console;rounded=1;spacing=4;strokeColor=#0066CC;fillColor=#fff2cc;labelBackgroundColor=#FFF2CC;fontSize=24;strokeWidth=2;" parent="1" vertex="1">
          <mxGeometry x="11300" y="5575" width="360" height="80" as="geometry" />
        </mxCell>
        <mxCell id="LzeKRFWDxI_c3MoV32VU-89" value="&lt;div&gt;&lt;div&gt;&lt;span style=&quot;color:#0f68a0;&quot;&gt;UtilitySetGlobalService&lt;/span&gt;&lt;/div&gt;&lt;div&gt;&lt;span style=&quot;color:#326d74;&quot;&gt;updateColumnsInAUtilitySetTable()&lt;/span&gt;&lt;/div&gt;&lt;/div&gt;" style="whiteSpace=wrap;html=1;fontFamily=Lucida Console;rounded=1;spacing=4;strokeColor=#0066CC;fillColor=#fff2cc;labelBackgroundColor=#FFF2CC;fontSize=24;strokeWidth=2;" parent="1" vertex="1">
          <mxGeometry x="9595" y="5850" width="500" height="80" as="geometry" />
        </mxCell>
      </root>
    </mxGraphModel>
  </diagram>
</mxfile>
